<?xml version="1.0" encoding="UTF-8"?>
<svg width="177.91mm" height="156.86mm" version="1.1" viewBox="0 0 177.91 156.86" xmlns="http://www.w3.org/2000/svg" xmlnsCc="http://creativecommons.org/ns#" xmlnsDc="http://purl.org/dc/elements/1.1/" xmlnsRdf="http://www.w3.org/1999/02/22-rdf-syntax-ns#">
 <metadata>
  <rdfRDF>
   <ccWork rdfAbout="">
    <dcFormat>image/svg+xml</dcFormat>
    <dcType rdfResource="http://purl.org/dc/dcmitype/StillImage"/>
    <dcTitle/>
   </ccWork>
  </rdfRDF>
 </metadata>
 <g fill="#ff2a2a">
  <path d="m94.691 63.81c0.0513-1.4785 0.14598-2.956 0.15382-4.4354 0.076-14.338-1.0611-28.645-1.972-42.942-0.10611-1.0014-14.268 0.49921-14.162 1.5006 1.2181 6.4291 2.3281 12.88 3.6543 19.287 1.8802 9.0836 4.1454 18.11 6.7421 27.016 0.0301 0.39482 5.6137-0.0312 5.5836-0.42604z" stroke-width=".26458"/>
  <path d="m113.14 73.793c10.082-8.5086 20.212-16.946 30.311-25.431 0.70029-0.90518-10.856-11.876-11.556-10.971-8.6917 10.031-17.799 19.787-24.746 31.468-0.3149 0.46927 5.6761 5.4027 5.991 4.9334z" stroke-width=".35752"/>
  <path d="m109.75 84.62c4.4808 4.9094 9.682 9.1316 14.993 13.101 3.6501 2.728 7.344 5.4019 11.13 7.9376 4.5743 3.0634 9.2079 6.0442 13.942 8.8536 4.8118 2.8552 9.7893 5.4215 14.684 8.1322 0.71254 0.56752 8.7384-9.5094 8.0258-10.077-4.8532-2.6334-9.6868-5.3034-14.56-7.9002-4.8353-2.5768-9.7217-5.0569-14.564-7.6203-9.9204-5.2516-19.709-10.739-29.595-16.055-0.25653-0.28689-4.3138 3.3409-4.0572 3.6278z" stroke-width=".26458"/>
  <path d="m95.931 94.65c0.24458 10.579 1.5813 21.156 3.6806 31.524 0.88534 4.3724 2.0428 8.6852 3.0641 13.028 0.16247 0.77986 11.191-1.5178 11.029-2.2976-4.4299-16.773-2.1572-8.5528-6.8298-24.769-1.3039-4.5249-2.969-10.552-4.5252-15.213-0.32847-0.98378-0.73575-1.9395-1.1036-2.9092-0.045-0.37583-5.36 0.2607-5.315 0.63652z" stroke-width=".26458"/>
  <path d="m78.012 93.295c-4.4832 3.7747-8.4313 8.1351-12.307 12.49-2.3249 2.6126-4.6522 5.2253-6.8764 7.9207-2.1809 2.643-4.223 5.393-6.3344 8.0895-0.4272 0.67937 9.3907 6.5915 9.8178 5.9122 2.1308-2.6893 4.3358-5.3236 6.3924-8.0677 5.258-7.0155 10.085-14.355 14.58-21.859 0.32413-0.36485-4.9484-4.8508-5.2726-4.4858z" stroke-width=".34872"/>
  <g stroke-width=".26458">
   <path d="m79.991 74.66c-1.4553-1.3318-2.8426-2.7418-4.3658-3.9953-11.345-9.3364-23.839-17.118-36.943-23.742-5.0865-2.5711-10.371-4.7292-15.557-7.0938-0.74678-0.53456-8.3067 10.026-7.5599 10.561 5.0033 2.4373 9.9782 4.9339 15.01 7.3119 5.3754 2.5404 10.82 4.9319 16.209 7.4423 9.7188 4.527 19.317 9.3116 29.097 13.708 0.29641 0.29061 4.4062-3.9013 4.1098-4.1919z"/>
   <path d="m69.969 3.3276c-1.3159 2.824-2.1158 5.8488-2.9965 8.8247-0.09326 0.47936 6.6859 1.7982 6.7791 1.3189 0.51154-3.0124 1.0642-6.0226 1.4035-9.061 0.0765-0.36671-5.1095-1.4492-5.1861-1.0825z"/>
   <path d="m81.231 0.83361c0.19335 2.6766 0.95608 5.2556 1.7553 7.8011 0.10298 0.40473 5.8267-1.0517 5.7237-1.4564-0.7037-2.371-1.3666-4.76-2.2383-7.0764-0.0517-0.37058-5.2924 0.36114-5.2407 0.73172z"/>
   <path d="m94.161 3.3716c0.84279 2.5395 0.33306 1.0942 1.5842 4.3161 0.16748 0.41222 5.9971-1.9563 5.8296-2.3685-1.8506-3.0339-0.98587-1.6698-2.5707-4.1072-0.15271-0.34246-4.9959 1.8172-4.8432 2.1596z"/>
   <path d="m130.35 26.987c-2.764 0.4351-1.2267 0.1216-4.5867 1.0572-0.37895 0.22633 2.8219 5.5854 3.2008 5.3591 3.071-1.3586 1.6701-0.67839 4.2222-2.0005 0.31225-0.20056-2.5241-4.6163-2.8363-4.4158z"/>
   <path d="m144.53 25.202c-0.90617 2.6306-0.44561 1.1637-1.3242 4.4182-0.0677 0.43258 6.0499 1.3906 6.1176 0.95797 0.32486-3.1667 0.20259-1.7347 0.39272-4.2937 0.0765-0.36672-5.1096-1.4492-5.1861-1.0825z"/>
   <path d="m148.05 39.455c-0.60291 3.247-0.45853 6.5594-0.42 9.8403 0.0257 0.49141 6.9752 0.12797 6.9496-0.36344-0.36288-3.165-0.73466-6.3266-1.2121-9.4768 0-0.376-5.3175-0.376-5.3175 0z"/>
   <path d="m161.67 134.98c1.4219 1.7512 3.1917 3.1553 4.9167 4.5874 0.30298 0.31565 4.767-3.9692 4.464-4.2848-1.7677-1.2792-3.5339-2.5612-5.3676-3.7456-0.24346-0.28377-4.2566 3.1593-4.0131 3.443z"/>
   <path d="m176.16 128.79c0.56584 0.0267 1.1317 0.0533 1.6975 0.08 0.38563-0.12009-1.3128-5.5737-1.6984-5.4536-0.54576 0.0937-1.0915 0.18735-1.6373 0.28102-0.3601 0.11584 1.2781 5.2085 1.6382 5.0926z"/>
   <path d="m116.49 144.26c0.54117 1.2239 1.3869 2.2647 2.1933 3.3179 0.20348 0.3351 4.9425-2.5426 4.739-2.8776-0.72569-0.96293-1.4675-1.9094-2.2883-2.7947-0.16649-0.32838-4.8104 2.0261-4.644 2.3544z"/>
   <path d="m106.75 148.01c-0.50261 2.8262-0.50451 5.6949-0.54426 8.5532 7e-3 0.46436 6.5744 0.36076 6.567-0.10359-0.14791-2.8196-0.22488-5.6566-0.67425-8.4496 0-0.3782-5.3485-0.3782-5.3485 0z"/>
   <path d="m95.961 146.59c-1.871 1.2204-0.87215 0.49549-2.9438 2.246-0.26327 0.32391 4.3174 4.0471 4.5807 3.7232 1.6545-1.7847 0.88226-0.94068 2.3205-2.5286 0.24328-0.27983-3.7141-3.7204-3.9574-3.4405z"/>
   <path d="m59.543 133.71c-0.38332 2.4172-0.52356 4.8552-0.65259 7.2955-0.01302 0.44488 6.2786 0.62888 6.2916 0.184 0.04274-2.4965 0.1251-5.0079-0.32155-7.4795 0-0.376-5.3175-0.376-5.3175 0z"/>
   <path d="m47.007 132.57c-2.0413 1.191-0.98325 0.52738-3.1586 2.0155-0.29368 0.29699 3.9064 4.4503 4.2001 4.1533 2.0713-1.6919 1.1095-0.83803 2.9006-2.5443 0.25629-0.27875-3.6858-3.9033-3.9421-3.6245z"/>
   <path d="m45.858 119.8c-5.0051-1.1915-10.1-1.8177-15.196-2.4588-0.5402-0.1857-3.1664 7.454-2.6262 7.6396 5.4706 0.35859 10.972 0.83502 16.446 0.18018 0.37908 0.0973 1.7555-5.2636 1.3765-5.361z"/>
   <path d="m20.562 33.434c0.49083-2.9482 0.77387-5.9276 1.1022-8.8967 0.02318-0.48349-6.8144-0.81145-6.8376-0.32796-0.01995 3.0837-0.12257 6.1833 0.51115 9.2246 0 0.36941 5.2243 0.36941 5.2243 0z"/>
   <path d="m10.195 41.26c-1.2497-1.3522-2.8125-2.3233-4.3418-3.3174-0.31445-0.27192-4.16 4.175-3.8455 4.447 1.462 0.83788 2.9407 1.6462 4.3843 2.5156 0.25775 0.26892 4.0608-3.3762 3.8031-3.6451z"/>
   <path d="m4.8617 52.46c-3.1703 1.95-1.5202 0.7738-4.8504 3.6645-0.28102 0.35868 4.7915 4.3329 5.0725 3.9742 2.2444-2.6096 1.1931-1.4884 3.0981-3.4153 0.29864-0.23478-3.0216-4.4582-3.3202-4.2234z"/>
   <path d="m152.65 82.82c-0.45146 0.0593-0.90292 0.11868-1.3544 0.17802-0.35474 0.16246 1.9427 5.1792 2.2974 5.0168 0.37243-0.11803 0.74486-0.23606 1.1173-0.35409 0.34229-0.14568-1.7181-4.9864-2.0604-4.8407z"/>
   <path d="m138.73 68.48c-0.32594 0.0965-0.65187 0.19303-0.97781 0.28955-0.31999 0.21034 2.6546 4.7356 2.9746 4.5253 0.32058-0.17157 0.64115-0.34314 0.96173-0.5147 0.30407-0.2092-2.6545-4.5093-2.9585-4.3001z"/>
   <path d="m123.88 123.34c0.62129 0.26052 1.2426 0.52104 1.8639 0.78156 0.36641 0.19601 3.1384-4.9858 2.772-5.1818-0.66769-0.11791-1.3354-0.23583-2.0031-0.35374-0.33616-0.18616-2.9689 4.5679-2.6327 4.754z"/>
   <path d="m48.806 101.51c0.35398 0.18483 0.70795 0.36967 1.0619 0.5545 0.32562 0.20536 3.2298-4.3995 2.9042-4.6049-0.33587-0.0832-0.67174-0.16649-1.0076-0.24974-0.30407-0.2092-3.2626 4.0909-2.9585 4.3001z"/>
   <path d="m55.812 81.32c-0.28891-0.20777-0.57783-0.41553-0.86674-0.62329-0.29372-0.24327-3.7341 3.9105-3.4404 4.1538l0.87174 0.38202c0.27666 0.24292 3.712-3.6696 3.4354-3.9125z"/>
   <path d="m32.509 79.13c-1.591 0.95756-0.80679 0.43961-2.3491 1.5591-0.27161 0.28225 3.7201 4.1233 3.9917 3.8411 1.0897-0.91177 0.60429-0.49708 1.461-1.2386 0.29427-0.21946-2.8094-4.3811-3.1036-4.1616z"/>
   <path d="m82.851 120.07c0.79266 1.6944 2.1171 2.9722 3.4234 4.2646 0.26095 0.31814 4.7602-3.3722 4.4992-3.6904-1.1008-0.96703-2.2163-1.9191-3.2786-2.9287-0.16648-0.32838-4.8104 2.0261-4.644 2.3544z"/>
   <path d="m69.933 35.92c-0.39672 0.13745-0.79344 0.2749-1.1902 0.41236-0.31999 0.2175 2.756 4.7428 3.076 4.5253 0.31681-0.17395 0.63363-0.34791 0.95044-0.52187 0.31224-0.20056-2.5241-4.6163-2.8363-4.4158z"/>
   <path d="m66.752 58.84c1.2457 0.61202 2.601 0.89526 3.944 1.1957 0.35887 0.16335 2.6689-4.9118 2.3101-5.0752-1.2134-0.24277-2.4251-0.51704-3.6589-0.6363-0.31931-0.1835-2.9145 4.3323-2.5951 4.5158z"/>
   <path d="m104.74 37.89c1.7318-0.096 0.83192-0.0248 2.6986-0.22446 0.36975-0.1457-1.6908-5.3748-2.0605-5.2291-1.8883 0.35878-0.9901 0.14878-2.6985 0.61282-0.34228 0.14569 1.7181 4.9864 2.0604 4.8407z"/>
   <path d="m94.811 71.11c-0.28939 0.20815-0.57878 0.4163-0.86816 0.62445-0.24668 0.29659 3.9478 3.7852 4.1944 3.4886 0.26642-0.30432 0.53283-0.60865 0.79925-0.91297 0.22628-0.29172-3.8992-3.4918-4.1255-3.2001z"/>
   <path d="m90.211 85.01c1.8883 1.0775 0.88268 0.53374 3.025 1.6162 0.33844 0.23724 3.6934-4.549 3.355-4.7863-2.3761-0.98216-1.2217-0.56871-3.4528-1.2691-0.3139-0.20699-3.2411 4.2322-2.9272 4.4392z"/>
  </g>
 </g>
</svg>
