<?xml version="1.0" encoding="UTF-8"?>
<svg width="156.32mm" height="171.93mm" version="1.1" viewBox="0 0 156.32 171.93" xmlns="http://www.w3.org/2000/svg" xmlnsCc="http://creativecommons.org/ns#" xmlnsDc="http://purl.org/dc/elements/1.1/" xmlnsRdf="http://www.w3.org/1999/02/22-rdf-syntax-ns#">
 <metadata>
  <rdfRDF>
   <ccWork rdfAbout="">
    <dcFormat>image/svg+xml</dcFormat>
    <dcType rdfResource="http://purl.org/dc/dcmitype/StillImage"/>
    <dcTitle/>
   </ccWork>
  </rdfRDF>
 </metadata>
 <g fill="#0f0" stroke-width=".26458">
  <path d="m20.196 60.597c-0.092-2.3356-0.25822-2.4586 0.32204-4.7908 0.1597-0.64188 0.34816-1.2879 0.6591-1.8717 1.1755-2.2071 0.50672-0.17918 1.5478-1.6445 0.15594-0.21948 0.201-0.49955 0.3015-0.74933 1.2035-0.7041 1.2125-2.161 1.9418-3.1946 0.33766-0.47859 0.91672-0.75338 1.2498-1.2352 1.7168-2.4835-0.22681-1.0488 1.6156-2.1982 0.28116-0.25534 0.51319-0.57848 0.84346-0.76601 0.5513-0.31303 1.2859-0.29625 1.7628-0.71388 0.03614-0.03164 0.48679-1.8667 0.78328-1.9553 0.89087 0.60453 0.4664 0.63273 1.2724 0.09923 0.95475 0.30422 1.6168 0.27346 2.4127-0.46075 0.08778-0.08097-0.05884-0.31823 0.0551-0.35401 1.3805-0.03417 0.79952 0.10454 1.7742-0.25205 1.3895 0.8632-0.98426-0.42678 1.1472-0.29204 0.8346 0.05276 1.6137 0.45019 2.3928 0.75388 2.0302 0.79129 3.1938 1.0817 4.1819 3.1048 0.17549 0.35931 0.0011 0.79974 0.0016 1.1996-0.65523-0.37212-1.3151-0.73618-1.9657-1.1164-0.18323-0.10708 0.38752 0.17784 0.56325 0.29683 0.79393 0.53759 1.6177 1.0418 2.3418 1.6703 2.4309 2.1098 4.1617 4.785 6.0571 7.348 0.87058 4.8805-0.25495 0.06392 1.4816 4.2756 0.36745 0.89119 0.46115 1.884 0.86316 2.7601 2.4594 5.36 2.0996 2.1228 3.8546 8.2267 0.43318 1.5066 0.58662 3.0799 0.87993 4.6198 1.7137 8.5898-0.05586-0.53393 1.386 7.6543 0.23238 1.3196 0.3737 2.6632 0.74993 3.9493 0.43369 1.4825 1.1133 2.8817 1.6699 4.3225 1.1921 3.5003 6.1423 1.8143 4.9501-1.6859-0.56204-1.1998-1.3216-2.3257-1.6861-3.5995-0.35768-1.2498-0.32451-2.58-0.45262-3.8736-0.57637-5.8203 0.28745-2.4385-1.8832-8.0952-0.42006-1.5821-0.83165-3.1665-1.2602-4.7463-0.40751-1.5023-0.91745-2.9787-1.2479-4.4998-0.29114-1.3399-0.41943-2.7102-0.61356-4.0676-0.16549-1.1571-0.10829-2.3627-0.46526-3.4758-0.59763-1.8635-2.4252-3.177-2.8126-5.1534-2.0379-2.5197-2.3575-2.6299-3.7947-5.5119-0.37248-0.74691-0.72996-1.5133-0.93796-2.3216-0.22428-0.8716 0.13282-2.1118-0.48077-2.9385-0.5291-0.7129-1.2676-1.2433-1.9015-1.865-0.41948-0.06548-0.83803-0.13727-1.2584-0.19644-0.7918-0.11144-1.6487 0.01254-2.378-0.31537-2.0463-0.92013-3.861-3.3164-5.763-4.3868-1.0051-0.56563-2.1664-0.79532-3.2689-1.1339-0.54772-0.16822-1.1169-0.25636-1.6754-0.38454-1.8232 1.3315-0.03436 0.33996-2.2424 0.63958-0.64331 0.08729-1.2447 0.37847-1.8828 0.49831-0.26135 0.04909-0.5611-0.11613-0.79774 0.0052-0.34297 0.17582-0.447 0.70356-0.81406 0.82108-0.26592 0.08514-0.51838-0.20766-0.77758-0.3115-0.87425 1.1698-0.89272 1.3689-2.3908 2.2885-1.4444 0.88665-1.755 0.40741-2.919 1.6287-0.24412 0.25614-0.29276 0.6485-0.49385 0.93964-0.36321 0.52585-0.79485 1.001-1.1923 1.5015-0.51866 0.51703-1.0373 1.0341-1.556 1.5511-0.32274 0.50423-0.57245 1.0635-0.96822 1.5127-0.37423 0.42473-0.93094 0.65927-1.3133 1.0767-0.40921 0.4468-0.65436 1.0233-1.0389 1.4915-1.9758 2.4061-0.29926-0.31567-1.8465 2.4637-0.31643 0.87956-0.71438 1.7332-0.95661 2.636-0.17734 0.66096-0.26385 1.3431-0.41197 2.0113-0.58714 2.6483-1.4288 5.2201-1.9348 7.8866-0.65368 5.8831 7.6663 6.8076 8.32 0.92444z"/>
  <path d="m142.44 61.187c-1.0378-1.8879-1.0084-1.4995-1.4011-3.9329-0.0812-0.50334-0.12498-1.0191-0.0833-1.5273 0.0433-0.52806 0.43972-1.034 0.33593-1.5536-0.14641-0.73293-0.7425-1.3006-1.0428-1.985-0.29881-0.68102-0.50004-1.4008-0.75006-2.1012-0.64973-0.58053-1.375-1.0862-1.9492-1.7416-0.38978-0.44491-0.52129-1.0778-0.91086-1.5229-0.65617-0.74968-2.1975-1.5483-2.9977-2.0321-0.91745-0.55461-2.3548-1.4516-3.3115-2.0464-1.3113-0.09135-2.124-1.3139-3.3094-1.6538-0.73341-0.21024-1.537 0.01746-2.285-0.1326-0.6594-0.13228-1.2321-0.56727-1.8904-0.70498-1.3588-0.28425-4.3598-0.27981-5.6596-0.30827-1.4841 1.3995-3.573 0.86658-5.2644 1.5677-0.88744 0.36787-1.6094 1.0496-2.4044 1.589-1.0182 0.6907-3.0262 2.1127-3.9535 2.8695-0.78856 0.64358-1.5321 1.3404-2.2981 2.0106-0.72189 2.2538-2.6986 3.6858-3.8225 5.6683-0.64536 1.1383-1.1786 2.353-1.5421 3.61-0.46512 1.6087-0.69217 3.2793-0.92916 4.937-0.55346 3.8713-0.79197 8.7286-1.0472 12.564-0.454 2.6735-0.85144 5.3573-1.362 8.0206-0.49326 2.5731-3.7042 17.301-4.102 19.306-1.9093 9.6222-2.9927 16.546-4.7406 26.277-0.47575 2.6488-0.98992 5.2905-1.4849 7.9357-0.0854 0.54169 0.68062 0.66252 0.76606 0.12083 1.4013-12.152 0.55319-6.1876 3.3331-21.718 1.0024-5.5998 2.9899-17.006 4.4942-22.88 0.76202-2.9757 1.7938-5.8758 2.6957-8.8121 0.80263-2.6132 1.6119-5.2242 2.4179-7.8364 2.9635-10.578 0.37628-2.6202 4.1057-11.543 0.50363-1.205 0.82763-2.4815 1.3555-3.6761 1.1022-2.494 2.8491-4.4852 4.6612-6.4789 0.63945-0.3225 1.3269-0.56362 1.9183-0.96749 3.467-2.3675-0.368-0.55759 3.1766-2.3363 0.55538-0.2787 1.1409-0.49271 1.7114-0.73906 0.54926-0.0942 1.1327-0.06979 1.6478-0.28261 0.61397-0.25369 1.1131-0.72544 1.6697-1.0882 4.0364 1.2815-0.56874-0.02307 2.645 0.50137 0.44272 0.07225 0.84815 0.31386 1.2926 0.37426 0.51733 0.0703 1.0819-0.18076 1.5662 0.01423 0.99148 0.39917 1.395 1.7663 2.5887 1.8921 4.0598 0.70126-0.40382-0.38026 1.8832 0.89298 0.33258 0.18516 0.80824 0.02585 1.1135 0.25324 0.38142 0.2841 0.47547 0.83553 0.80659 1.1769 1.3638 1.4061 0.96231 0.11379 1.2171 1.3923 0.18849 0.17334 0.35706 0.37122 0.56545 0.52002 0.29389 0.20984 0.81186 0.21002 0.93329 0.55011 0.21545 0.60345-0.20976 1.3009-0.0508 1.9216 0.16931 0.66114 0.70233 1.1724 1.0004 1.7864 0.99971 2.0591 0.64889 1.5634 0.4336 4.2093 1.6684 5.8393 9.9263 3.4798 8.258-2.3594z"/>
  <path d="m19.454 94.487c-0.24176-2.5192-0.5359-3.1815 0.24958-5.7602 0.30047-0.98645 0.91485-1.8514 1.2884-2.8125 0.26414-0.67962 0.2595-1.4639 0.62-2.0977 2.69-4.7292-0.15336 2.4713 1.468-1.9512 0.85335-1.063 1.9367-2.4833 2.9356-3.3459 0.57982-0.50072 1.2892-0.82902 1.913-1.2737 0.31096-0.22169 0.51207-0.65849 0.88841-0.72342 0.36486-0.063 0.67343 0.33705 1.0398 0.39073 0.27409 0.0401 0.54843-0.0786 0.82264-0.11786 1.4639-1.3594 1.2736-1.3896 3.4752-2.264 0.53044-0.21066 1.1142-0.25198 1.6612-0.41508 0.32923-0.0982 0.62141-0.3303 0.96295-0.36745 0.68184-0.0742-2.2065 0.76352-0.27023 0.18664 1.0961-0.32574 1.7885-0.65747 2.9253-0.57823 0.34108 0.0238 0.65323 0.29055 0.99335 0.25564 0.34939-0.0359 0.60638-0.38383 0.95029-0.45514 0.18124-0.0376 0.36394 0.0775 0.53546 0.14704 0.68112 0.27632 1.3454 0.59258 2.018 0.88887 0.86412 0.72965 1.6844 1.5147 2.5923 2.189 0.98246 0.72955 2.1847 1.1689 3.0688 2.0149 0.76337 0.73047 1.1448 1.7783 1.7787 2.6236 0.54312 0.72439 1.2827 1.3024 1.7475 2.0794 0.50562 0.84523 0.55264 1.9321 1.1296 2.7303 0.63496 0.87836 1.6111 1.4503 2.4166 2.1754 0.79881 0.80421 1.5796 1.6267 2.3964 2.4126 0.75087 0.72244 1.6358 1.3127 2.3054 2.1111 0.85573 1.0203 1.463 2.2265 2.2397 3.3082 0.57442 0.79999 6.2564 8.2709 6.471 8.5006 1.7395 1.8614 3.7509 3.4489 5.6263 5.1733 7.1251 8.1888 4.2643 3.8579 8.8236 12.83 0.71 0.98453 2.1023-0.0196 1.3923-1.0041-6.419-7.6745-3.3364-3.4839-9.1084-12.673-1.3208-2.0714-2.7667-4.0682-3.9624-6.2143-0.95247-1.7096-1.6249-3.5609-2.4678-5.3271-0.85898-1.7999-3.0423-6.2138-4.1271-7.9912-1.5725-2.5767-2.5111-3.5578-4.3784-5.8114-2.7031-2.8774-1.4446-1.3605-3.775-4.551-0.6487-0.72369-1.4391-1.3066-2.1564-1.9624-0.9454-0.86439-4.5777-4.1507-5.3385-5.0766-0.91438-1.1127-1.6118-2.3872-2.4177-3.5808-1.1372-0.60348-2.2769-1.2022-3.4115-1.8104-1.0981-0.58866-2.1618-1.2441-3.2865-1.7803-0.48237-0.22999-0.98535-0.49592-1.5195-0.5111-0.49672-0.0141-0.93686 0.35304-1.4282 0.4273-0.2365 0.0357-2.0484 0.043-2.5693 0.0466-0.56559 0.0254-1.1543-0.0861-1.6968 0.076-2.9467 0.88072-1.4677 0.70906-3.0755 1.8859-1.3355 0.97755-2.3862 0.99376-3.9954 1.2994-1.9466 1.6048-0.88274 0.9088-3.2048 2.0673-1.2826 0.93777-2.1345 2.2749-3.2305 3.39-0.6361 0.6472-1.3235 1.2421-1.9985 1.8486-0.76948 0.69148-1.5563 1.3634-2.3345 2.0451-0.78081 1.6437-1.4228 2.7409-1.8398 4.4898-0.19844 0.83227-0.15794 1.7161-0.40931 2.534-0.29788 0.96917-0.8995 1.8239-1.2252 2.784-3.9841 11.744 2.1335-4.3072-2.069 6.4746-0.75665 6.0532 7.8039 7.1233 8.5606 1.0701z"/>
  <path d="m135.51 89.147c-2.7249-2.7467 0.16999 0.29556-2.8262-3.3555-0.53753-0.65501-1.2362-1.18-1.703-1.8872-0.41279-0.62539-0.47494-1.4434-0.90187-2.0592-0.50166-0.72363-1.2265-1.2637-1.8397-1.8955-0.49498-0.78706-0.98995-1.5741-1.4849-2.3612-0.7422-0.70004-1.4844-1.4001-2.2266-2.1001-0.58129-0.86101-1.037-1.8218-1.7439-2.583-0.86684-0.93355-1.8542-1.7722-2.9315-2.4521-2.6779-1.6901-4.426-1.7768-7.436-2.6286-1.2698-0.35934-2.5241-0.7714-3.7862-1.1571-2.386-0.12336-4.4037-1.4655-6.6494-2.0426-0.94784-0.24356-1.9458-0.22938-2.9058-0.41948-2.0168-0.39939-2.5919-1.0986-4.7379-0.43919-0.59481 0.18277-1.022 0.71016-1.533 1.0652-3.0104 0.88088-8e-3 -0.12914-3.2884 1.4654-1.4054 0.68302-2.3779 0.74231-3.5468 1.7721-0.88953 0.78362-1.5702 2.1684-2.1375 3.1421-1.58 2.2104-1.1606 1.2748-2.0303 4.0109-0.26348 0.8289-0.35371 1.7215-0.73301 2.5042-0.37795 0.77993-1.1037 1.3516-1.5072 2.1186-1.0587 2.0126-0.93465 2.7163-1.1619 4.8764-0.0779 0.64132-0.0947 1.293-0.23371 1.924-0.16258 0.73804-0.5282 1.424-0.66738 2.1668-0.5716 3.0506-0.0247 2.4117-0.0573 5.5764-0.0943 9.1475-0.63517-3.5471-3e-3 7.4994-0.40846 4.0056 0.559 7.9636 0.54858 11.952-7e-3 2.5903-0.18305 5.186-0.53173 7.7527-0.30956 2.2788-0.95872 4.4985-1.4381 6.7477-0.19316 1.3888 1.7709 1.662 1.9641 0.27318 0.57137-6.4756 0.50413-7.9893 1.9634-14.554 0.49929-2.246 1.3095-4.4142 1.8289-6.6556 0.38599-1.6659 0.58941-3.3689 0.88412-5.0534 2.1011-7.6348 0.28899-0.51006 1.581-6.9801 0.17445-0.87366 0.47282-1.7206 0.6277-2.598 0.14156-0.80188 0.0413-1.6445 0.25972-2.429 0.20775-0.74626 0.80061-1.3491 1.0004-2.0975 0.19401-0.7267 0.10697-1.5005 0.16045-2.2507 0.14626-0.49237 0.35918-0.96969 0.43877-1.4771 0.28178-1.7964-0.34841-1.871 0.68256-3.6526 0.33238-0.57436 1.0397-0.8763 1.3506-1.4626 1.7072-3.2194-1.5052-0.4548 1.9386-2.8315 0.30375-0.34175 0.55033-0.74453 0.91124-1.0252 0.28889-0.2247 0.7735-0.16964 0.9973-0.45922 0.18842-0.24379 5e-3 -0.62049 0.07-0.9217 0.249-1.1561 2.5557-0.47685 2.9403-1.5517 3.7533 0.0261-0.23559 0.4818 1.464-1.2946 0.29962-0.31316 0.8671-0.0252 1.2985-0.0669 0.77866-0.0752 1.5481-0.31745 2.3297-0.28363 2.1677 0.0938 4.2502 0.99883 6.4224 1.0594 5.3039 1.619 1.4606 0.15136 6.0105 2.6276 0.86878 0.47283 1.874 0.70913 2.6677 1.2993 0.69826 0.51916 1.0859 1.3678 1.7203 1.9632 5.031 4.7217-0.83567-1.708 3.7215 3.4814 0.45242 0.67517 0.98263 1.3043 1.3572 2.0255 1.351 2.6011 0.52877 2.3808 2.2122 4.7927 0.40458 0.57967 1.0408 0.96936 1.4578 1.5402 1.3275 1.8171 1.0519 1.9438 1.3077 4.1446 3.3625 5.6041 11.288 0.84887 7.9254-4.7553z"/>
  <path d="m122 24.722c-2.5673-0.98008-1.5218-0.49004-4.1977-1.9421-0.95027-0.51567-1.9411-0.96601-2.84-1.5667-0.89768-0.5998-1.5737-1.5214-2.5304-2.0217-0.95426-0.49906-2.0803-0.56474-3.0965-0.92111-0.97667-0.3425-1.9166-0.78196-2.8749-1.1729-1.6769 0.34504-2.1592 0.23908-3.3686 0.92395-0.32739 0.18539-0.59431 0.48126-0.9453 0.61674-0.4286 0.16543-0.92787 0.09223-1.3516 0.26978-4.38 1.8354 2.6771-0.1477-3.3025 1.333-2.9554 1.0491 0.36374-0.31881-3.0854 1.99-0.80073 0.53601-1.8548 0.69123-2.5537 1.3546-0.82057 0.77886-1.2414 1.8918-1.8626 2.8373-1.8228 2.7743-0.87687 1.5146-2.8528 3.8653-0.38753 0.4792-0.89152 0.88414-1.1626 1.4376-0.36464 0.74451-0.43021 1.6031-0.70905 2.3838-0.35864 1.0041-0.92472 1.9349-1.2012 2.9647-0.33977 1.2654-0.43832 2.5836-0.6363 3.8788-2.3449 15.341 1.1809-6.9508-1.4526 9.574-0.14333 1.7227-0.19856 3.455-0.42998 5.1681-1.2491 9.2464-1.098 1.7286-1.4367 12.274-0.0986 3.0694 0.33074 6.1698-0.0848 9.2125-0.28433 2.0821-1.3268 3.9879-1.9901 5.9818-0.2091 2.2681 2.9985 2.5638 3.2076 0.2957-0.40862-2.0928-1.4047-4.1536-1.2258-6.2785 0.25723-3.056 1.769-5.8759 2.4996-8.8545 0.53088-2.1643 0.75249-4.3966 1.2817-6.5613 0.84086-3.4395 2.3653-6.6953 2.8269-10.239 1.3192-7.6639-0.0901-2.3712 2.8354-8.8918 0.4113-0.91674 0.6144-1.92 1.0489-2.826 0.33046-0.68911 0.84329-1.2756 1.2332-1.9328 1.4381-2.4242 0.10308-0.84643 2.2681-2.954 0.17192-0.71474 0.18836-1.486 0.51576-2.1442 0.0717-0.14415 1.9062-2.3651 2.3668-2.6387 0.41937-0.24921 0.95467-0.2301 1.3973-0.43517 0.45618-0.21134 0.85095-0.53568 1.2764-0.80352 0.46792-0.19343 0.93584-0.38685 1.4038-0.58028 0.15934-0.34155 0.12652-0.88869 0.47803-1.0246 0.49566-0.19172 1.0464 0.24129 1.5778 0.22948 0.96276-0.02141 2.0087-0.61529 2.8816-0.87951 0.46713-0.1414 0.97361-0.14311 1.4292-0.3181 0.0688-0.0264-0.021-0.14581-0.0316-0.21871-0.0316-0.73714-0.18644-1.019 1.4238-0.66755 1.5846 0.34585 3.7815 1.8365 4.9164 2.8824 0.78913 0.72723 1.3611 1.6655 2.1308 2.4133 0.7055 0.68549 1.5204 1.2486 2.2806 1.8729 5.5768 2.7884 9.5201-5.0983 3.9434-7.8867z"/>
  <path d="m37.811 50.513c0.0779-0.93515 0.03057-1.8893 0.23371-2.8055 0.51298-2.3134 1.1634-3.5719 2.636-5.3362 1.3542-1.6225 1.4771-0.04254 1.226-2.4429 1.1753-1.8523 2.3641-3.6628 3.4129-5.5939 0.60437-1.1128 0.83984-2.4705 1.7056-3.3947 0.71462-0.76286 1.877-0.9214 2.799-1.414 2.2098-1.1806 0.89098-1.1035 3.1565-0.61244 2.1814-2.7587-0.24774-0.39014 3.527-1.6133 0.01307-0.0042 1.3124-1.6605 1.8242-0.71054 0.21278 0.39497-0.61819 0.38835-0.7401 0.39581 0.94741-0.28322 1.8995 0.05437 2.8465-0.0047 0.19088-0.01191 0.35979-0.13598 0.54801-0.1699 0.94185-0.16974 1.8599-0.0883 2.7164 0.52486 0.82514 0.5907 1.3793 1.4888 2.069 2.2333 0.78056 0.43619 1.7257 0.66046 2.3417 1.3086 2.3796 2.5036-0.08155 1.0298 0.34652 2.8886 0.13096 0.56869 0.6051 0.99832 0.89006 1.5076 2.8606 5.1122-0.65025-0.92707 2.4196 4.2988 0.88989 2.8273 2.3122 5.483 3.0106 8.3749 0.23891 0.98928 0.24244 2.029 0.51611 3.0092 3.5369 12.668-0.96456-6.7375 2.2506 7.7814 0.0674 0.76376 0.87942 10.075 0.95227 10.442 0.43078 2.1708 1.328 4.2258 1.8484 6.3769 0.58867 2.4332 0.95194 4.9158 1.4759 7.3637 6.3076 29.47-3.3414-16.972 3.7862 17.567 0.48622 3.1115 0.97245 6.223 1.4587 9.3345 3e-3 0.0212 0.033 0.017 0.0301-4e-3 -0.46559-3.1148-0.93119-6.2295-1.3968-9.3443-0.44952-3.2554-0.84767-6.5182-1.3486-9.7661-0.41034-2.6607-1.0949-5.2804-1.3847-7.9569-1.2625-11.658 0.35116-3.2314 0.0735-13.961-0.0494-1.9075-0.44991-3.7897-0.67487-5.6845-6e-3 -1.642-0.0116-3.2839-0.0173-4.9259-0.25222-1.5346-0.50444-3.0691-0.75665-4.6037 0.0865-1.3638 0.40997-2.7331 0.25951-4.0913-0.12385-1.1181-0.82442-2.1032-1.0674-3.2016-0.22846-1.0329-0.0729-2.1315-0.33868-3.1554-0.53247-2.0516-2.1219-3.7527-2.1314-5.9909-0.32062-1.6698-0.58774-3.6824-1.2874-5.2853-0.28358-0.6497-0.72454-1.2187-1.0772-1.8337-0.42765-0.74564-0.72665-1.5767-1.2637-2.2479-1.3079-1.6344-2.9504-2.4259-4.6924-3.5085-1.5003-1.6232-3.3838-3.8379-5.2294-5.0776-0.90546-0.60819-1.9409-1.0062-2.9602-1.3945-0.70452-0.2684-1.4424-0.46566-2.1894-0.56731-0.19672-0.02677-0.37571 0.12847-0.56356 0.1927-0.07216-0.02217-0.14432-0.04433-0.21648-0.06649-1.5719 0.07769-2.9715-0.0021-4.447 0.75493-0.48603 0.24942-0.71869 0.83392-1.1548 1.1629-0.33332 0.25142-0.75724 0.35344-1.1228 0.55512-1.9258 1.0625 0.56487 0.06461-2.8558 1.1856-0.7763 0.47804-1.6572 0.81767-2.3289 1.4341-0.75409 0.69207-1.2347 1.6333-1.8795 2.4282-0.77775 0.95883-1.5969 1.8833-2.3872 2.8319-0.78352 0.94055-1.5025 1.9369-2.3339 2.8354-1.614 1.7442-2.7446 2.6034-4.4899 4.0502-0.70735 0.41243-1.6707 0.55412-2.1221 1.2373-0.37144 0.56224 0.03516 1.3507-0.0308 2.0213-0.06565 0.66747-0.25028 1.3179-0.36268 1.9791-0.14636 0.86102-0.18786 1.7436-0.41355 2.5873-0.61205 2.288-1.6603 4.4446-2.6082 6.5998-1.0625 5.3124 6.4504 6.815 7.5129 1.5026z"/>
  <path d="m123.13 99.737c-1.0843-1.4652-0.8823-3.3438-1.5171-4.9478-0.34803-0.87942-0.97746-1.6214-1.4059-2.4646-1.0599-2.0859-1.9239-4.521-2.7807-6.7105-0.0786-0.64151-0.0101-1.3188-0.23567-1.9245-0.25282-0.67899-0.75112-1.2403-1.1644-1.8354-1.0839-1.5609-2.2873-2.9462-3.8328-4.0641-0.72148-0.52189-1.4837-0.98497-2.2256-1.4774-2.5196-0.27461-4.2001-2.3522-6.4524-3.1706-1.4291-0.51923-4.1978-0.67284-5.7576-0.31335-2.2562 0.51998-1.9858 0.48927-2.8725 1.8553l-0.96996 0.78033c-0.58971 0.0261-1.2657-0.22993-1.7691 0.0782-0.72432 0.44333-0.92362 1.4686-1.5991 1.9833-0.52991 0.40379-1.3206 0.31291-1.883 0.67004-0.41427 0.26306-0.61828 0.76284-0.94714 1.1271-0.44841 0.49665-0.9224 0.96959-1.3836 1.4544-0.47788 0.48972-1.1954 0.82772-1.4336 1.4692-0.30663 0.82557 0.0931 1.7796-0.0927 2.6404-0.16194 0.75019-0.7065 1.3718-0.93172 2.1055-0.19638 0.63976-0.15884 1.3327-0.32286 1.9815-1.3539 5.3554-0.46202-0.44497-1.1828 5.5569-0.0141 1.0122 0.08 2.0316-0.0422 3.0365-0.12468 1.0254-0.63802 1.9887-0.69418 3.0202-0.0641 1.178 0.2882 2.3443 0.33795 3.5229 0.0511 1.211-0.0941 2.4255-0.0357 3.6362 0.34357 7.1236 0.65251 0.51743 0.11611 7.2975 0.0366 1.867-0.62839 3.6794-0.66555 5.5384-0.0172 0.85771 0.25506 1.7056 0.23232 2.5632-0.13349 5.0354-0.88482 1.311-0.41314 7.0486 0.13211 1.607 0.49705 3.1863 0.74557 4.7794 0.60446 4.5568 1.4218 6.3003-0.36347 10.801-0.44333 1.1176-1.4726 1.901-2.209 2.8516-0.80951 4.7111 5.853 5.8559 6.6625 1.1448-0.26457-1.1782-0.80757-2.3272-0.79371-3.5347 0.0436-3.7948 1.8828-7.4438 1.2991-11.311 2.2251-8.1566 0.81854-1.2709 1.1864-8.2068 0.0503-0.94929 0.27208-1.8817 0.4172-2.8212 0.0683-0.44196 0.84728-5.1142 0.83786-5.5765-0.0234-1.149-0.34274-2.2728-0.51411-3.4092-0.36306-4.8001-0.25009-2.2854-0.30265-7.2219-0.012-1.1226-0.13208-2.2491-0.0386-3.3679 0.086-1.0295 0.44079-2.0211 0.57453-3.0455 0.67517-5.1714-0.44454-0.66015 0.9195-5.357 0.29599-0.72264 0.59197-1.4453 0.88796-2.1679 0.0792-0.76374 8e-5 -1.561 0.23758-2.2912 0.26561-0.81664 0.88474-1.4762 1.2418-2.2572 0.18128-0.39651 0.17824-0.86195 0.3645-1.2562 0.19128-0.40483 0.61886-0.66083 0.81743-1.0659-0.0584-0.3019-0.35103-0.65349-0.17514-0.90572 0.26642-0.38208 0.83573-0.41193 1.2468-0.63108 0.38338-0.2044 0.81004-0.35188 1.1359-0.63927 0.32065-0.28282 0.3914-0.81683 0.76023-1.0331 0.5382-0.31558 1.2071-0.3162 1.8106-0.4743 0.46762-0.29233 0.93525-0.58467 1.4029-0.87701 0.44461-0.0597 0.8973-0.0758 1.3338-0.17919 0.15885-0.0376-0.43182 0.13205-0.48928-0.0207-0.11766-0.31283-0.10565-0.73874 0.10651-0.99699 0.23845-0.29022 0.67472-0.38594 1.0496-0.41015 1.6669-0.10767 2.2298 0.49439 3.6758 1.277 2.1574 4.4562-0.65695-0.30708 2.236 2.1448 1.2141 1.029 0.28484 1.487 1.1583 2.5895 0.26569 0.33536 0.77381 0.39449 1.0805 0.69278 0.42434 0.41268 0.72047 0.93936 1.0807 1.409 0.61727 1.3437 1.166 2.7185 1.7989 4.0549 0.39292 0.82966 0.89858 1.6055 1.2546 2.4516 0.28306 0.67274 0.4089 1.4022 0.65595 2.089 1.4288 3.9719 0.45147 0.28602 1.4613 4.7714 1.7372 5.2115 9.1073 2.7548 7.3702-2.4567z"/>
  <path d="m36.896 105.47c0.10829-0.83513 0.03942-1.7131 0.32488-2.5054 0.51557-1.4309 1.977-2.7845 2.9173-3.9078 0.42386-0.50635 0.69093-1.1682 1.2246-1.5572 4.2624-3.1069 0.37989 1.575 3.5741-2.8513 0.7864-0.96631 1.6635-2.2165 2.7685-2.8739 0.45463-0.27051 1.0175-0.29221 1.5164-0.46821 0.59498-0.20991 1.1727-0.46609 1.763-0.68878 1.7708-0.668 1.1429-0.9032 2.1266-0.15559-0.43259-0.33307 0.21536 0.27883 0.37392 0.32485 0.7265 0.21089 1.5469 0.0688 2.2381 0.37629 1.4365 0.63906 4.3922 2.8279 5.3559 4.2026 0.54241 0.77373 0.72565 1.745 1.0885 2.6174 2.0843 4.7824 0.15604 0.6913 3.785 6.9127 1.0953 1.8778 2.0219 3.8542 3.1824 5.6924 1.4329 2.2697 3.3942 4.2133 4.5888 6.617 1.0401 2.0928 1.3561 4.473 2.0342 6.7096 0.4823 1.0926 2.0275 0.41056 1.5452-0.68208-4.1189-8.5766-2.3483-4.1611-5.4458-13.833-0.65532-2.0463-1.4739-4.0483-1.9552-6.1425-0.37084-1.6135-0.15271-3.3347-0.58996-4.9315-0.36154-1.3203-1.1831-2.4689-1.7746-3.7034-0.69326-1.0606-1.2768-2.2017-2.0798-3.1819-0.02186-0.0267-5.9001-5.9576-5.9984-6.0495-1.8497-1.7287-3.4628-3.4343-6.0169-4.0267-0.85504-0.19831-1.7554 0.012-2.6331 0.0181-0.62751 0.41679-1.2637 0.82086-1.8825 1.2504-1.4127 0.98041-1.6295 1.3743-3.3082 2.0124-0.90596 0.34439-1.9672 0.31082-2.7876 0.82688-1.4128 0.88871-1.7509 2.9986-3.3449 3.7261-0.6557 0.50615-1.3793 0.93479-1.9671 1.5184-1.4439 1.4339-1.5716 2.4878-2.9001 4.0759-0.62294 0.74464-1.452 1.2976-2.0847 2.0339-1.2815 1.4913-2.1014 3.3517-3.635 4.6458-2.8273 5.6546 5.1696 9.6531 7.9969 3.9984z"/>
  <path d="m67.911 10.609c1.9718 1.6849 3.9436 3.3699 5.9154 5.0548 0.43142 0.66673 1.3743 0.05662 0.9429-0.61011-0.66933-2.6941-1.3387-5.3883-2.008-8.0824-2.5722-3.4297-7.4225 0.20804-4.8503 3.6377z"/>
  <path d="m154.27 37.657c-8.5085-0.9113-4.2288-0.09219-12.82-2.5536-1.3571-0.64624-2.271 1.273-0.91393 1.9193 6.8388 4.5458 4.4371 1.6788 7.7532 8.1107 5.2866 4.2293 11.268-3.2471 5.9811-7.4763z"/>
  <path d="m154.73 95.427c-0.67608-0.87523-1.3522-1.7505-2.0282-2.6257-1.7388-1.3176-3.8425-2.2581-5.2162-3.9528-1.0431-1.2868-1.1708-3.0992-1.7563-4.6487-1.7333-2.8246-5.7279-0.37338-3.9946 2.4512 1.0212 1.2799 2.3285 2.3766 3.0634 3.8398 1.8862 3.7555 1.7519 5.3438 1.9863 8.909 2.8092 5.6184 10.755 1.6456 7.9456-3.9728z"/>
  <path d="m138.17 115.36c-0.66931-0.65316-1.471-1.1938-2.0079-1.9595-1.0292-1.4676-4.2241-7.9267-4.9255-9.3108-1.0341-2.4913-4.5574-1.0288-3.5232 1.4625 0.55914 1.681 1.3595 3.3002 1.6774 5.043 0.49553 2.7168-0.22357 5.5708 0.6199 8.2617 2.4727 5.7696 10.632 2.2727 8.1594-3.4969z"/>
  <path d="m24.765 124.36-0.57318-5.5383c0.5958-2.2343-2.5639-3.0769-3.1597-0.84259-1.5019 1.8773-3.0038 3.7546-4.5057 5.6319-0.5296 5.8256 7.7091 6.5746 8.2387 0.74897z"/>
  <path d="m5.7234 75.237c0.80982-0.77669 1.6196-1.5534 2.4295-2.3301 2.9841-3.798-2.387-8.0182-5.3712-4.2202-0.66822 0.91512-1.3364 1.8302-2.0046 2.7454-2.6905 3.4976 2.2559 7.3025 4.9463 3.8049z"/>
  <path d="m14.591 24.235c7.203-0.60776 7.3799-1.4802 14.745 2.1095 2.0759 1.0118 3.7439 2.7048 5.6159 4.0573 0.5917 0.3722 1.1181-0.46459 0.52636-0.83678-2.0353-1.1003-4.1149-2.1223-6.1059-3.3009-4.7047-2.7851-9.1291-6.0299-13.958-8.6135-4.6559-0.58199-5.4789 6.0024-0.82305 6.5844z"/>
  <path d="m109.87 0c-16.644 9.2455 10.121-5.1201-11.696 4.4855-2.3274 1.0247-4.3042 2.7096-6.4628 4.0538-1.4679 0.91409-2.9444 1.8141-4.4167 2.7212-1.9589 2.0708 0.9697 4.8411 2.9286 2.7703 0.73087-1.3934 1.026-3.1245 2.1926-4.1803 3.8834-3.5145 7.7646-4.1582 12.73-3.0478 1.7124 0.38297 3.1498 1.5474 4.7247 2.3211 6.4515 0 6.4515-9.1238 0-9.1238z"/>
  <path d="m72.726 108.89c3.5327 11.354-1.4876-5.177 2.2314 8.6897 2.4848 9.2648 2.1516 5.0097 4.1304 15.557 1.3532 7.2126 1.6161 10.767 2.3151 17.522 0.22401 1.2679 2.0171 0.95108 1.793-0.31679-0.77241-2.1617-1.8246-4.243-2.3172-6.4851-0.77698-3.5362-1.1097-7.159-1.4722-10.761-0.56432-5.6077-0.75531-10.169-0.0536-15.682 0.21943-1.7238 0.71585-3.401 1.0628-5.1037 0.23198-1.1386 0.44928-2.28 0.67392-3.42 0-5.9139-8.3635-5.9139-8.3635 0z"/>
  <path d="m78.456 123.06c0.7848 2.3802 2.1244 4.6449 2.3544 7.1406 0.3712 4.029-0.32043 8.0865-0.57945 12.124-0.25882 4.0346-1.9454 24.891-2.3136 29.486-0.0125 0.15449 0.20596 0.17221 0.21848 0.0177 0.38084-4.6615 0.77274-9.3222 1.1425-13.985 0.4097-5.1657 0.64179-10.347 1.1959-15.5 0.43343-4.0298 0.69444-8.1213 1.765-12.03 0.70974-2.5915 2.3442-4.8356 3.5163-7.2534 0-5.1616-7.2996-5.1616-7.2996 0z"/>
  <path d="m90.516 96.907c-2.8701 7.2581-3.0733 15.107-4.0079 22.746-0.37333 3.0516-0.8545 6.0889-1.2818 9.1334-0.0479 0.31853 0.40261 0.38622 0.45048 0.0677 0.92562-8.1955 0.7206-11.912 4.5158-19.8 0.84352-1.7534 2.2424-3.2557 3.7802-4.4478 0.89429-0.69322 2.1631-0.66508 3.2446-0.99763 4.7387-4.7386-1.9628-11.44-6.7015-6.7015z"/>
  <path d="m50.196 63.737c0.11017-0.51071 0.02711-1.1068 0.33051-1.5321 0.23139-0.3244 0.73174-0.31569 1.0986-0.47133 0.19246-0.0817 0.37028-0.23335 0.57922-0.24058 0.08733-3e-3 0.06716 0.24478 0.14944 0.21537 1.7982-0.64261-0.79558-0.84637 2.0981-0.20306 1.6617 0.56843 2.9824-1.1456 4.5571-0.38725 0.677 0.32605 1.3891 0.65414 1.9126 1.1933 0.92044 0.94802 2.9413 4.9002 3.4129 5.7694 0.53346 1.5272 1.0669 3.0545 1.6004 4.5817 0.52653 2.0297 0.89629 4.1066 1.5796 6.0891 0.91264 2.6477 2.325 5.1083 3.1973 7.7696 0.97758 2.9824 1.5219 6.0901 2.339 9.1204 1.9132 7.0955 3.9838 14.148 5.9732 21.222 1.1418 3.6672 2.2836 7.3345 3.4254 11.002 0.0324 0.10918 0.18681 0.0634 0.1544-0.0458-1.1103-3.6747-2.2207-7.3493-3.331-11.024-2.697-10.267-2.9971-11.437-5.6199-21.322-0.80352-3.0285-1.7966-6.0125-2.4175-9.0837-1.1663-5.7693-0.96072-8.9022-1.6381-14.497-0.22172-1.8314-0.57309-3.6447-0.85963-5.4671-0.4967-1.6374-0.80291-3.3452-1.4901-4.9123-0.64064-1.4609-1.4416-2.8779-2.4633-4.103-1.7281-2.0721-4.8897-4.2033-7.5211-4.8926-0.42809-0.11213-2.801 0.35489-3.5315 0.48928-0.47471 0.02442-0.94892 0.0618-1.4241 0.07329-0.81742 0.01976-1.6723-0.22311-2.4529 0.02043-1.9317 0.60271-2.9957 2.0014-4.3164 3.3579-2.4356 2.5017-1.3642 1.1957-3.2527 3.8885-2.3972 5.5936 5.5133 8.9838 7.9105 3.3902z"/>
 </g>
</svg>
