<?xml version="1.0" encoding="UTF-8"?>
<svg width="280" height="360" version="1.1" viewBox="0 0 74.083 95.25" xmlns="http://www.w3.org/2000/svg" xmlns:cc="http://creativecommons.org/ns#" xmlns:dc="http://purl.org/dc/elements/1.1/" xmlns:rdf="http://www.w3.org/1999/02/22-rdf-syntax-ns#">
 <metadata>
  <rdf:RDF>
   <cc:Work rdf:about="">
    <dc:format>image/svg+xml</dc:format>
    <dc:type rdf:resource="http://purl.org/dc/dcmitype/StillImage"/>
    <dc:title/>
   </cc:Work>
  </rdf:RDF>
 </metadata>
 <path transform="scale(1,-1)" d="m-0.15847-95.25h74.247v95.25h-74.247z" fill="#162d50" stroke-width=".26474"/>
 <g fill="#f9f9f9" stroke-width=".26458">
  <path d="m15.381 11.403c0.11052 1.0114 0.22004 2.0216 0.29129 3.0368 0.0861 1.4752 0.09023 2.9531 0.10831 4.4302 0.0042 0.27324 0.01012 0.54645 0.01253 0.81971 0.0071 0.79736-0.0088 0.86318 0.02141 1.6655 0.03497 0.92914 0.12172 1.8536 0.20669 2.7791 0.23061 2.0151 0.56424 4.0181 0.9702 6.0049 0.19949 1.0231 0.46262 2.0327 0.85194 3.001 0.24128 0.60007 0.32628 0.74114 0.61359 1.3157 0.41904 0.75802 0.89527 1.5098 1.5305 2.1087 0.37008 0.34891 0.65116 0.52551 1.0666 0.81968 0.87058 0.57738 1.7978 1.0795 2.7896 1.4125 0.12037 0.03216 0.24074 0.06432 0.36112 0.09649 0 0 3.7661-0.51061 3.7661-0.51061-0.12539-0.02363-0.25079-0.04725-0.37618-0.07088-1.0256-0.2569-1.989-0.73026-2.8884-1.2799-0.37206-0.25526-0.69062-0.45735-1.0308-0.75353-0.64312-0.56001-1.146-1.2612-1.5699-1.9955-0.28427-0.5401-0.38748-0.70847-0.62598-1.2744-0.40058-0.95047-0.67606-1.9484-0.92783-2.9465-0.46404-1.9607-0.83228-3.9459-0.99489-5.9566-0.12524-1.7431-0.19704-3.4894-0.15206-5.2374 0.0023-1.4827-0.01341-2.9658-0.06576-4.4477-0.03625-1.0041-0.13678-2.0143-0.05982-3.0173h-3.8984z"/>
  <path d="m59.389 11.445c-0.11052 1.0114-0.22004 2.0216-0.29129 3.0368-0.0861 1.4752-0.09023 2.9531-0.10831 4.4302-0.0042 0.27324-0.01012 0.54645-0.01253 0.81971-0.0071 0.79736 0.0088 0.86318-0.02141 1.6655-0.03497 0.92914-0.12172 1.8536-0.20669 2.7791-0.23061 2.0151-0.56424 4.0181-0.9702 6.0049-0.19949 1.0231-0.46262 2.0327-0.85194 3.001-0.24128 0.60007-0.32628 0.74114-0.61359 1.3157-0.41904 0.75802-0.89527 1.5098-1.5305 2.1087-0.37008 0.34891-0.65116 0.52551-1.0666 0.81968-0.87058 0.57738-1.7978 1.0795-2.7896 1.4125-0.12037 0.03216-0.24074 0.06432-0.36112 0.09649 0 0-3.7661-0.51061-3.7661-0.51061 0.12539-0.02363 0.25079-0.04725 0.37618-0.07088 1.0256-0.2569 1.989-0.73026 2.8884-1.2799 0.37206-0.25526 0.69062-0.45735 1.0308-0.75353 0.64312-0.56001 1.146-1.2612 1.5699-1.9955 0.28427-0.5401 0.38748-0.70847 0.62598-1.2744 0.40058-0.95047 0.67606-1.9484 0.92783-2.9465 0.46404-1.9607 0.83228-3.9459 0.99489-5.9566 0.12524-1.7431 0.19704-3.4894 0.15206-5.2374-0.0023-1.4827 0.01341-2.9658 0.06576-4.4477 0.03625-1.0041 0.13678-2.0143 0.05982-3.0173h3.8984z"/>
  <path d="m58.79 86.311c-0.11052-1.0114-0.22004-2.0216-0.29129-3.0368-0.0861-1.4752-0.09023-2.9531-0.10831-4.4302-0.0042-0.27324-0.01012-0.54645-0.01253-0.81971-0.0071-0.79736 0.0088-0.86318-0.02141-1.6655-0.03497-0.92914-0.12172-1.8536-0.20669-2.7791-0.23061-2.0151-0.56424-4.0181-0.9702-6.0049-0.19949-1.0231-0.46262-2.0327-0.85194-3.001-0.24128-0.60007-0.32628-0.74114-0.61359-1.3157-0.41904-0.75802-0.89527-1.5098-1.5305-2.1087-0.37008-0.34891-0.65116-0.52551-1.0666-0.81968-0.87058-0.57738-1.7978-1.0795-2.7896-1.4125-0.12037-0.03216-0.24074-0.06432-0.36112-0.09649 0 0-3.7661 0.51061-3.7661 0.51061 0.12539 0.02363 0.25078 0.04725 0.37618 0.07088 1.0256 0.2569 1.989 0.73026 2.8884 1.2799 0.37206 0.25526 0.69062 0.45735 1.0308 0.75353 0.64312 0.56001 1.146 1.2612 1.5699 1.9955 0.28427 0.5401 0.38748 0.70847 0.62598 1.2744 0.40058 0.95047 0.67606 1.9484 0.92783 2.9465 0.46404 1.9607 0.83228 3.9459 0.99489 5.9566 0.12524 1.7431 0.19704 3.4894 0.15206 5.2374-0.0023 1.4827 0.01341 2.9658 0.06576 4.4477 0.03625 1.0041 0.13678 2.0143 0.05982 3.0173h3.8984z"/>
  <path d="m15.853 86.202c0.11052-1.0114 0.22004-2.0216 0.29129-3.0368 0.0861-1.4752 0.09023-2.9531 0.10831-4.4302 0.0042-0.27324 0.01012-0.54645 0.01253-0.81971 0.0071-0.79736-0.0088-0.86318 0.02141-1.6655 0.03497-0.92914 0.12172-1.8536 0.20669-2.7791 0.23061-2.0151 0.56424-4.0181 0.9702-6.0049 0.19949-1.0231 0.46262-2.0327 0.85194-3.001 0.24128-0.60007 0.32628-0.74114 0.61359-1.3157 0.41904-0.75802 0.89527-1.5098 1.5305-2.1087 0.37008-0.34891 0.65116-0.52551 1.0666-0.81968 0.87058-0.57738 1.7978-1.0795 2.7896-1.4125 0.12037-0.03216 0.24074-0.06432 0.36112-0.09649 0 0 3.7661 0.51061 3.7661 0.51061-0.12539 0.02363-0.25078 0.04725-0.37618 0.07088-1.0256 0.2569-1.989 0.73026-2.8884 1.2799-0.37206 0.25526-0.69062 0.45735-1.0308 0.75353-0.64312 0.56001-1.146 1.2612-1.5699 1.9955-0.28427 0.5401-0.38748 0.70847-0.62598 1.2744-0.40058 0.95047-0.67606 1.9484-0.92783 2.9465-0.46404 1.9607-0.83228 3.9459-0.99489 5.9566-0.12524 1.7431-0.19704 3.4894-0.15206 5.2374 0.0023 1.4827-0.01341 2.9658-0.06576 4.4477-0.03625 1.0041-0.13678 2.0143-0.05982 3.0173h-3.8984z"/>
 </g>
 <path d="m35.817 11.908c0.77165 4.735 0.74398 9.539 0.73076 14.313-0.087 4.5384-0.02 2.3309-0.19323 6.6224l2.437 0.0024c-0.07454-4.292-0.05938-2.0846-0.03727-6.6225 0.10384-4.7766 0.19677-9.5769 0.92591-14.316h-3.8632z" fill="#59f" stroke-width=".25214"/>
 <path d="m35.767 83.901c0.77165-4.735 0.74398-9.539 0.73076-14.313-0.087-4.5384-0.02-2.3309-0.19323-6.6224l2.437-0.0024c-0.07454 4.292-0.05938 2.0846-0.03727 6.6225 0.10384 4.7766 0.19677 9.5769 0.92591 14.316h-3.8632z" fill="#59f" stroke-width=".25214"/>
 <g stroke-width=".26458">
  <path d="m-4.016 36.066c0.3626 0.8693 0.78313 1.711 1.2622 2.5215 0.56435 0.95698 1.3384 1.7548 2.1195 2.5342 0.78997 0.81314 1.7125 1.4537 2.7075 1.986 0.93683 0.49508 1.972 0.73871 2.9871 1.0152 1.3797 0.38774 2.7634 0.75768 4.1594 1.0823 1.347 0.30854 2.7105 0.51619 4.084 0.65793 1.3717 0.12131 2.7455 0.2159 4.1193 0.30854 1.3018 0.09036 2.6064 0.1265 3.9109 0.14663 2.2848 9e-3 4.5728 0.07434 6.8557-0.03232 0.81214-0.06873 1.6223-0.15593 2.4368-0.19222 0.11009-0.0034 0.22018-0.0067 0.33027-0.01013 0 0-3.7787-0.58264-3.7787-0.58264-0.10766 0.0055-0.21533 0.01106-0.323 0.01662-0.78703 0.05108-1.5687 0.15954-2.3566 0.19965-1.595 0.05979-0.64394 0.01701 2.6512 0.02968 0.16949 5.29e-4 -0.33898 2.46e-4 -0.50847 2.64e-4 -0.46579 2.47e-4 -0.60455 5.3e-4 -1.0757-0.0011-0.19136-5.29e-4 -0.38272-0.0019-0.57409-0.0026-1.3198-0.01267-2.6399-0.03413-3.9574-0.11915-1.359-0.09085-2.7177-0.18608-4.0748-0.30265-1.3959-0.13843-2.7895-0.29033-4.1606-0.60039-1.3669-0.3147-2.7173-0.68842-4.0646-1.078-0.99143-0.28593-2.007-0.51899-2.9503-0.94554-1.0027-0.48522-1.9251-1.0665-2.7085-1.8697-0.76771-0.75669-1.5325-1.523-2.1096-2.4416-0.46184-0.76048-0.87989-1.563-1.0878-2.4341l-3.8936 0.11351z" fill="#ff0"/>
  <path d="m78.605 59.852c-0.3626-0.8693-0.78313-1.711-1.2622-2.5215-0.56435-0.95698-1.3384-1.7548-2.1195-2.5342-0.78997-0.81314-1.7125-1.4537-2.7075-1.986-0.93683-0.49508-1.972-0.73871-2.9871-1.0152-1.3797-0.38774-2.7634-0.75768-4.1594-1.0823-1.347-0.30854-2.7105-0.51619-4.084-0.65793-1.3717-0.12131-2.7455-0.2159-4.1193-0.30854-1.3018-0.09036-2.6064-0.1265-3.9109-0.14663-2.2848-9e-3 -4.5728-0.07434-6.8557 0.03232-0.81214 0.06873-1.6223 0.15593-2.4368 0.19222-0.11009 0.0034-0.22018 0.0067-0.33027 0.01013 0 0 3.7787 0.58264 3.7787 0.58264 0.10766-0.0055 0.21533-0.01106 0.323-0.01662 0.78703-0.05108 1.5687-0.15954 2.3567-0.19965 1.595-0.05979 0.64394-0.01701-2.6512-0.02968-0.16949-5.29e-4 0.33898-2.46e-4 0.50847-2.64e-4 0.46579-2.47e-4 0.60455-5.29e-4 1.0757 0.0011 0.19136 5.29e-4 0.38272 0.0019 0.57409 0.0026 1.3198 0.01267 2.6399 0.03413 3.9574 0.11915 1.359 0.09085 2.7177 0.18608 4.0748 0.30265 1.3959 0.13843 2.7895 0.29033 4.1606 0.60039 1.3669 0.3147 2.7173 0.68842 4.0646 1.078 0.99143 0.28593 2.007 0.51899 2.9503 0.94554 1.0027 0.48522 1.9251 1.0665 2.7085 1.8697 0.76771 0.75669 1.5325 1.523 2.1096 2.4416 0.46184 0.76048 0.87989 1.563 1.0878 2.4341l3.8936-0.11351z" fill="#ff0"/>
  <path d="m-4.2571 59.191c0.3626-0.8693 0.78313-1.711 1.2622-2.5215 0.56435-0.95698 1.3384-1.7548 2.1195-2.5342 0.78997-0.81314 1.7125-1.4537 2.7075-1.986 0.93683-0.49508 1.972-0.73871 2.9871-1.0152 1.3797-0.38774 2.7634-0.75768 4.1594-1.0823 1.347-0.30854 2.7105-0.51619 4.084-0.65793 1.3717-0.12131 2.7455-0.2159 4.1193-0.30854 1.3018-0.09036 2.6064-0.1265 3.9109-0.14663 2.2848-9e-3 4.5728-0.07434 6.8557 0.03232 0.81214 0.06873 1.6223 0.15593 2.4368 0.19222 0.11009 0.0034 0.22018 0.0067 0.33027 0.01013 0 0-3.7787 0.58264-3.7787 0.58264-0.10766-0.0055-0.21533-0.01106-0.323-0.01662-0.78703-0.05108-1.5687-0.15954-2.3567-0.19965-1.595-0.05979-0.64394-0.01701 2.6512-0.02968 0.16949-5.29e-4 -0.33898-2.46e-4 -0.50847-2.64e-4 -0.46579-2.47e-4 -0.60455-5.29e-4 -1.0757 0.0011-0.19136 5.29e-4 -0.38272 0.0019-0.57409 0.0026-1.3198 0.01267-2.6399 0.03413-3.9574 0.11915-1.359 0.09085-2.7177 0.18608-4.0748 0.30265-1.3959 0.13843-2.7895 0.29033-4.1606 0.60039-1.3669 0.3147-2.7173 0.68842-4.0646 1.078-0.99143 0.28593-2.007 0.51899-2.9503 0.94554-1.0027 0.48522-1.9251 1.0665-2.7085 1.8697-0.76771 0.75669-1.5325 1.523-2.1096 2.4416-0.46184 0.76048-0.87989 1.563-1.0878 2.4341l-3.8936-0.11351z" fill="#0f0"/>
  <path d="m79.002 36.059c-0.3626 0.8693-0.78313 1.711-1.2622 2.5215-0.56435 0.95698-1.3384 1.7548-2.1195 2.5342-0.78997 0.81314-1.7125 1.4537-2.7075 1.986-0.93683 0.49508-1.972 0.73871-2.9871 1.0152-1.3797 0.38774-2.7634 0.75768-4.1594 1.0823-1.347 0.30854-2.7105 0.51619-4.084 0.65793-1.3717 0.12131-2.7455 0.2159-4.1193 0.30854-1.3018 0.09036-2.6064 0.1265-3.9109 0.14663-2.2848 9e-3 -4.5728 0.07434-6.8557-0.03232-0.81214-0.06873-1.6223-0.15593-2.4368-0.19222-0.11009-0.0034-0.22018-0.0067-0.33027-0.01013 0 0 3.7787-0.58264 3.7787-0.58264 0.10766 0.0055 0.21533 0.01106 0.323 0.01662 0.78703 0.05108 1.5687 0.15954 2.3567 0.19965 1.595 0.05979 0.64394 0.01701-2.6512 0.02968-0.16949 5.29e-4 0.33898 2.46e-4 0.50847 2.64e-4 0.46579 2.47e-4 0.60455 5.29e-4 1.0757-0.0011 0.19136-5.29e-4 0.38272-0.0019 0.57409-0.0026 1.3198-0.01267 2.6399-0.03413 3.9574-0.11915 1.359-0.09085 2.7177-0.18608 4.0748-0.30265 1.3959-0.13843 2.7895-0.29033 4.1606-0.60039 1.3669-0.3147 2.7173-0.68842 4.0646-1.078 0.99143-0.28593 2.007-0.51899 2.9503-0.94554 1.0027-0.48522 1.9251-1.0665 2.7085-1.8697 0.76771-0.75669 1.5325-1.523 2.1096-2.4416 0.46184-0.76048 0.87989-1.563 1.0878-2.4341l3.8936 0.11351z" fill="#0f0"/>
  <path d="m47.49 47.841a9.9157 9.9157 0 0 1-9.9157 9.9157 9.9157 9.9157 0 0 1-9.9157-9.9157 9.9157 9.9157 0 0 1 9.9157-9.9157 9.9157 9.9157 0 0 1 9.9157 9.9157z" fill="#ff2a2a"/>
 </g>
</svg>
