<?xml version="1.0" encoding="UTF-8"?>
<svg width="138.52mm" height="129.56mm" version="1.1" viewBox="0 0 138.52 129.56" xmlns="http://www.w3.org/2000/svg" xmlnsCc="http://creativecommons.org/ns#" xmlnsDc="http://purl.org/dc/elements/1.1/" xmlnsRdf="http://www.w3.org/1999/02/22-rdf-syntax-ns#">
 <metadata>
  <rdfRDF>
   <ccWork rdfAbout="">
    <dcFormat>image/svg+xml</dcFormat>
    <dcType rdfResource="http://purl.org/dc/dcmitype/StillImage"/>
    <dcTitle/>
   </ccWork>
  </rdfRDF>
 </metadata>
 <g fill="#5cc0ff">
  <g stroke-width=".26458">
   <path d="m18.925 10.183c11.392 8.0064 6.1754 3.199 15.418 14.668 0.10537 0.12894 0.28773-0.02008 0.18235-0.14902-9.2402-11.436-5.7391-5.3096-10.837-18.183-2.5909-3.3681-7.3542 0.29591-4.7633 3.6641z"/>
   <path d="m62.473 5.207c0.90098 1.5119 2.1555 2.863 2.7029 4.5357 2.1383 6.5334 1.68 13.505 1.8347 20.224 3e-3 0.16733 0.23934 0.16351 0.23664-4e-3 -0.0547-3.9052-0.47129-7.8221-0.16404-11.716 0.58044-7.3555 1.2916-7.6368 4.2065-13.04 0-6.2343-8.8167-6.2343-8.8167 0z"/>
   <path d="m98.173 12.232c-0.68678 2.4004-0.70476 5.1045-2.0603 7.2011-1.8759 2.9015-4.8969 4.8756-7.3324 7.3263-2.5274 2.5431-5.0374 5.1034-7.5561 7.6551-0.12517 0.12673 0.0541 0.30375 0.17923 0.17701 2.5014-2.5699 4.9814-5.1608 7.5042-7.7096 8.8459-8.9372 4.5525-5.8229 14.139-10.901 2.651-3.4464-2.2228-7.1955-4.8739-3.7491z"/>
   <path d="m132.63 49.538c-1.4014 1.4657-2.3089 3.6756-4.204 4.397-5.858 2.2298-20.224 1.5691-25.662 1.5639-2e-3 0-2e-3 3e-3 0 3e-3 4.7272 0.0558 9.4546 0.0949 14.182 0.16738 13.849 0.2124 8.1488-0.7495 18.391 1.9875 5.7409-1.9136 3.0346-10.033-2.7063-8.1189z"/>
   <path d="m111.03 98.008c-14.739-8.5789-7.545-3.0189-20.808-17.636-0.13843-0.15857-0.36267 0.0372-0.22424 0.19577 13.296 14.429 9.0516 6.625 14.318 22.476 3.5608 4.7477 10.275-0.28799 6.7142-5.0357z"/>
   <path d="m86.663 112.91c-6.5144-7.6656-4.333-3.3654-6.7383-12.8-0.0505-0.17555-0.29877-0.10413-0.24827 0.0714 2.2874 9.4607 1.7992 4.5945 1.3413 14.61 1.3306 3.9918 6.9758 2.11 5.6452-1.8818z"/>
   <path d="m52.375 125.97c-4.6324-12.075-3.515-5.4808-2.3164-19.931 0.01162-0.17573-0.2369-0.19216-0.24852-0.0164-0.98749 14.488 0.64999 7.8924-4.2132 19.947 0 4.7928 6.7781 4.7928 6.7781 0z"/>
   <path d="m26.488 106.7c0.10573-2.5662-0.71103-5.3451 0.31718-7.6987 1.4722-3.3698 10.075-12.744 13.008-16.055 0.08311-0.0954-0.05177-0.21292-0.13488-0.11755-1.9385 2.1937-3.9984 4.2858-5.8155 6.581-10.347 13.069-2.5485 6.5482-14.091 14.492-1.9788 4.749 4.7374 7.5474 6.7161 2.7984z"/>
   <path d="m5.4589 75.138c12.771-7.2919 5.4356-4.5852 22.462-6.7587-0.17768 0.0208-0.14822 0.2721 0.02946 0.25127-16.884 1.5848-9.2274 2.184-23.035-0.55278-4.9923 0.38402-4.4492 7.4442 0.54309 7.0602z"/>
   <path d="m7.9329 39.448c20.077 7.6399 1.0331 0.0273 26.955 12.025 4.7343 2.1912 9.5724 4.1507 14.359 6.2261-0.07969-0.0346-0.12863 0.0781-0.04894 0.11271-4.7477-2.1569-9.5312-4.2366-14.243-6.4708-18.981-9.0002-12.497-4.0133-23.812-15.843-2.7933-2.2696-6.003 1.6808-3.2096 3.9503z"/>
   <path d="m41.421 28.448c5.6639 7.2828 2.6682 3.1628 8.7981 12.495 0.11895 0.29738 0.53951 0.12916 0.42056-0.16823-1.2463-9.9015-2.1118-5.8829 0.36485-12.327 0-6.7766-9.5835-6.7766-9.5835 0z"/>
   <path d="m76.823 19.983c-4.2545 9.6995-1.0007 1.1012-3.8435 13.876-0.46863 2.1059-1.2012 4.1443-1.8018 6.2164-0.14739 0.47903 0.53006 0.68748 0.67746 0.20844 0.47129-2.1004 0.45668-4.3732 1.4139-6.3013 3.0997-6.244 3.2926-5.5415 8.0929-6.7373 5.1352-3.2095 0.59628-10.472-4.5389-7.2622z"/>
   <path d="m107.33 34.088c-1.4094 2.0445-2.247 4.6365-4.2282 6.1336-2.4076 1.8193-5.6242 2.1938-8.3897 3.4012-3.3201 1.4495-6.5747 3.0448-9.862 4.5672-0.14932 0.0704-0.0498 0.28152 0.0995 0.21117 5.5454-2.5495 12.312-6.2931 18.635-6.9717 2.264-0.24293 4.5248 0.51396 6.7872 0.77093 5.7364-2.1511 2.6942-10.264-3.0422-8.1124z"/>
   <path d="m116.53 75.698c-2.4255 0.58851-4.7958 2.0402-7.2766 1.7656-4.2071-0.46578-19.716-6.8248-23.768-8.4122-0.10045-0.039-0.15562 0.10304-0.0552 0.14205 3.1078 1.1642 20.913 7.6725 23.496 9.316 2.0845 1.3262 3.1849 3.7778 4.7774 5.6667 5.9949 1.9983 8.8209-6.4798 2.826-8.478z"/>
   <path d="m97.083 102.67c-1.4378-1.3702-2.8197-2.8015-4.3135-4.1104-16.091-14.1 1.1404 2.6213-20.509-19.482-0.74178-0.73095-1.7755 0.31808-1.0337 1.049 9.6108 8.6303 13.917 9.6167 17.793 20.397 0.42299 1.1764 0.0301 2.5 0.0452 3.75 1.1339 5.6693 9.1515 4.0658 8.0176-1.6035z"/>
   <path d="m69.813 110.85c-4.3533-7.8083-3.4343-3.7485-3.2358-12.061-0.0811-1.277-1.887-1.1623-1.806 0.11466 0.35197 8.0911 1.0005 4.0956-2.179 11.946 0 5.1058 7.2207 5.1058 7.2207 0z"/>
   <path d="m46.128 112.07c0.36252-11.275-1.2951-6.1309 4.908-15.454 0.05983-0.0955-0.07519-0.1801-0.13503-0.0846-6.0902 9.4692-2.146 5.5815-11.931 11.563-2.8117 5.0611 4.3458 9.0376 7.1575 3.9764z"/>
   <path d="m24.23 87.918c10.322-8.0192 4.6813-4.9976 16.879-9.1468 0.14359-0.0494 0.07379-0.25243-0.0698-0.20307-12.237 4.1741-5.8814 3.1377-19.088 2.9687-4.5122 1.6115-2.2332 7.9927 2.279 6.3812z"/>
   <path d="m14.403 60.048c18.957-0.2051 0.69397-0.82581 26.731 4.0754 7.9141 1.4898 15.936 2.3361 23.904 3.5042-0.49565-0.0806-0.60969 0.62032-0.11404 0.70096-2.9014-0.56308-34.993-6.4437-40.647-8.6403-3.089-1.2002-5.4273-3.8044-8.141-5.7065-4.2895-1.2256-6.0227 4.8407-1.7332 6.0663z"/>
   <path d="m32.311 36.408c2.8163 1.4789 5.6326 2.9577 8.4489 4.4366 0.15146 0.16092 0.37904-0.0533 0.22758-0.2142-1.2373-2.7865-2.4746-5.5731-3.7119-8.3596-2.9254-3.5105-7.89 0.62667-4.9646 4.1372z"/>
   <path d="m49.664 23.539c5.446 7.2883 2.9464 3.2519 7.2817 12.241 0.02627 0.0919 0.15628 0.0548 0.13001-0.0371-0.27366-9.3522-1.398-5.3776 2.1499-12.204 0-6.7611-9.5616-6.7611-9.5616 0z"/>
   <path d="m89.223 29.178c-7.9513 7.3794-0.0742-0.0263-9.35 9.057-2.5812 2.5276-5.4224 4.805-7.7987 7.5262-2.3389 2.6783-4.1963 5.7416-6.2945 8.6124-0.0701 0.096 0.0656 0.19516 0.13573 0.0992 3.2085-4.3278 9.2763-13.283 13.889-16.365 4.3077-2.8786 7.1231-1.4633 11.295-0.48563 5.9708-1.3268 4.0943-9.7708-1.8764-8.444z"/>
   <path d="m104.18 59.438c-15.157 5.1918-5.0173 3.2489-25.183 1.3425-4.626-0.43733-9.2735-0.60539-13.91-0.90808-0.41668-0.034-0.46479 0.55526-0.0481 0.58927 4.6372 0.2919 9.2781 0.5309 13.912 0.87569 18.527 1.3786 11.253-0.41952 25.23 4.9935 4.874 0 4.874-6.8929 0-6.8929z"/>
   <path d="m95.973 79.488c-14.891-7.7684-9.372-4.1215-26.027-17.546-4.6769-3.7698-9.1833-7.7463-13.775-11.619-0.33746-0.26148-0.70726 0.21577-0.36979 0.47725 9.4476 6.6157 22.153 14.71 29.759 23.489 2.3307 2.6902 3.1436 6.3872 4.7154 9.5807 3.0986 4.0282 8.7952-0.3539 5.6967-4.382z"/>
   <path d="m62.563 94.788c-2.8514-5.7702-2.2839-2.7363-1.7476-9.0931 0.23383-3.0398-4.0651-3.3705-4.2989-0.33069-0.99901 6.6298-0.10547 3.4978-2.5804 9.4238 0 6.1002 8.627 6.1002 8.627 0z"/>
   <path d="m46.305 92.718c1.2209-9.313-0.44469-4.7418 5.9016-13.349 0.16113-0.19788-0.11872-0.42576-0.27985-0.22788-7.4781 7.7897-3.4302 4.8675-11.75 9.2876-3.0333 4.3332 3.0949 8.623 6.1281 4.2897z"/>
   <path d="m36.885 78.668c6.7255-6.7187 2.8948-4.9154 10.952-6.4329 1.5304-0.58435 0.70405-2.7487-0.8264-2.1644-6.9612 4.0971-2.9824 2.9584-12.166 2.477-4.3276 1.4426-2.2876 7.5628 2.0401 6.1202z"/>
   <path d="m33.68 53.938c16.725 5.9395 8.1396 2.5975 25.707 10.15 0.25464 0.1114 0.41218-0.24871 0.15755-0.36011-17.549-7.3685-9.5671-3.0105-24.149-12.693-2.0527-1.2129-3.768 1.69-1.7154 2.9029z"/>
   <path d="m41.681 48.258c7.8233 4.8418 4.1539 2.004 10.957 8.5795 0.07748 0.0956 0.2127-0.014 0.13522-0.10958-4.578-7.5342-3.4297-3.6688-4.1408-11.366-2.048-4.9153-8.9993-2.0189-6.9512 2.8964z"/>
   <path d="m57.774 31.098c0.18436 4.0084 2.9261 7.2509 3.7341 11.056 0.52392 2.4672 0.20741 5.0402 0.31112 7.5603 1e-3 0.0404 0.0581 0.039 0.0571-1e-3 -0.0218-2.5196-0.44174-5.0674-0.0654-7.5589 0.44011-2.9141 2.6454-7.9824 3.9087-11.056 0-5.6183-7.9455-5.6183-7.9455 0z"/>
   <path d="m79.063 51.578c-23.52 13.367 8.8726-4.47-17.373 7.9813-2.5055 1.1887-4.7212 2.9106-7.0819 4.3659-0.2337 0.14843-0.02379 0.47893 0.20991 0.3305 2.3363-1.4495 4.5458-3.1271 7.009-4.3485 9.396-4.659 8.4716-3.6795 18.405-4.4874 2.7166-0.82678 1.5473-4.6686-1.1692-3.8418z"/>
   <path d="m97.573 49.708c-1.7178 1.0264-3.3279 2.2594-5.1532 3.0794-2.2945 1.0308-4.7411 1.6859-7.1398 2.443-4.3388 1.3695-8.7359 2.5467-13.1 3.8347-1.3498 0.63672-0.44939 2.5457 0.90046 1.909 1.52-1.1018 2.8705-2.487 4.5601-3.3053 5.2387-2.5373 9.1738-3.5337 14.882-2.0898 1.8375 0.46477 3.3666 1.7425 5.0498 2.6138 5.9996 0 5.9996-8.4846 0-8.4846z"/>
   <path d="m92.943 72.178c-16.045-4.0636-8.053-1.3947-23.923-8.1606-0.0133-6e-3 -0.0215 0.013-8e-3 0.0188 15.852 6.9693 8.328 3.0242 22.625 11.734 2.5399 0.92358 3.846-2.6683 1.3062-3.5919z"/>
   <path d="m76.413 92.898c-10.044-5.6462-6.0385-1.8538-12.18-11.202-0.10687-0.14879-0.31728 2e-3 -0.21041 0.15114 5.3321 8.9949 4.1255 4.3479 4.4028 13.714 1.8827 5.6481 9.8704 2.9856 7.9877-2.6626z"/>
   <path d="m125.44 65.058c-11.474 1.339-5.7388 2.0333-17.128-2.6503-0.0976-0.0409-0.15551 0.0971-0.0579 0.13806 11.846 5.3418 6.3823 1.7412 16.24 11.027 6.0212 0.66902 6.9673-7.8462 0.94613-8.5152z"/>
   <path d="m104.36 23.937c-2.7777 3.961-5.0282 8.2627-7.7442 12.262-1.3842 2.0381-2.9609 3.9386-4.4414 5.9078-0.24025 0.32903 0.22507 0.66879 0.46532 0.33976 1.3851-2.0246 2.3989-4.3615 4.1554-6.0739 5.5588-5.4192 5.6718-4.4852 11.904-4.6249 5.5229-3.0683 1.1837-10.879-4.3392-7.8106z"/>
   <path d="m81.893 4.113c-0.35904 4.0159 2.5776 7.471 2.6874 11.361 0.086 3.0445-3.6919 23.509-4.1056 25.855-0.0299 0.17501 0.21763 0.21727 0.24751 0.0423 0.79293-4.5173 1.6517-9.0236 2.3788-13.552 0.65683-4.0909 0.56831-8.3385 1.7724-12.303 1.0786-3.5511 3.9792-6.7075 6.3513-9.5364 1.3197-6.5986-8.0121-8.465-9.3319-1.8664z"/>
   <path d="m44.62 7.067c9.3628 15.725 4.789 6.5292 12.487 28.167-0.08387-0.25838-0.44928-0.13977-0.36541 0.11861-7.0254-21.972-4.4299-11.898-8.3983-30.058-1.2537-2.6327-4.977-0.85976-3.7233 1.773z"/>
   <path d="m33.078 19.187c10.987 8.808 4.8439 2.6804 14.774 17.744 3.4095 5.1722 6.9056 10.287 10.358 15.43 0.33026 0.48938 1.0223 0.0223 0.69208-0.46705-1.1522-1.5738-17.504-23.322-18.885-27.167-0.86639-2.4112 0.52153-5.0976 0.7823-7.6464-1.4891-5.4599-9.2105-3.354-7.7214 2.1058z"/>
   <path d="m13.498 28.618c14.996 10.318 4.9911 2.3447 21.551 20.741 3.55 3.9436 7.2761 7.7252 10.914 11.588 0.38346 0.40329 0.95381-0.13901 0.57035-0.5423-6.9071-6.751-19.005-17.954-24.075-25.801-1.8717-2.8972-2.105-6.5693-3.1576-9.8539-2.7358-4.1037-8.5393-0.23469-5.8035 3.869z"/>
   <path d="m35.015 95.358c1.263-1.4914 2.5259-2.9828 3.7889-4.4742 1.4052-0.8993 0.13335-2.8865-1.2718-1.9872-1.9526 0.42165-3.9051 0.84329-5.8577 1.2649-3.6744 2.3621-0.33387 7.5586 3.3406 5.1964z"/>
   <path d="m53.409 99.478c-1.122-2.2014-2.8599-4.1858-3.3659-6.6043-0.81823-3.9106-0.23598-14.733-0.06751-19.344 0.0046-0.13194-0.18199-0.13845-0.18659-7e-3 -0.11153 2.7102-0.33327 5.418-0.3346 8.1305-0.0074 15.016 1.8606 6.8994-2.2979 18.658 0.5895 4.4212 6.842 3.5876 6.2526-0.83367z"/>
   <path d="m60.21 116.52c-5.0306-11.469-3.0258-4.2878-3.1588-20.694-0.03039-3.7487-0.12805-7.4965-0.19208-11.245 0-0.16401-0.23193-0.16401-0.23193 0-0.04382 3.7483-0.12991 7.4963-0.13147 11.245-0.0069 16.486 2.1714 9.2719-3.3508 20.694 0 4.9958 7.0651 4.9958 7.0651 0z"/>
   <path d="m83.023 77.018c-10.351-3.6053-4.9434-0.74854-15.311-10.11-0.11316-0.11186-0.27136 0.0482-0.1582 0.16004 9.5721 10.082 7.1894 4.5989 9.3424 15.31 3.7907 4.3322 9.9173-1.0286 6.1267-5.3608z"/>
   <path d="m62.083 81.368c-0.84935-2.0159-2.1787-3.8915-2.5481-6.0476-0.71572-4.1774 0.09024-11.574 0.45464-16.052 0.02061-0.3658-0.49671-0.39495-0.51732-0.0291-0.13208 4.4823-0.18128 12.017-1.1997 16.081-0.54211 2.163-1.9066 4.0317-2.8598 6.0476 0 4.7166 6.6703 4.7166 6.6703 0z"/>
   <path d="m69.263 67.828c-4.3474-4.2917-1.8062-1.8734-7.7157-7.1568-0.2078-0.38879-0.75762-0.0949-0.54982 0.29387 1.2754 7.854 1.2427 4.2956 0.68317 10.654 2.6808 5.3615 10.263 1.5704 7.5823-3.7912z"/>
   <path d="m81.143 123.89c-9.547-8.7061-5.3806-3.1559-10.994-17.68-0.13773-0.33487-0.6113-0.14009-0.47357 0.19478 5.7444 14.235 5.1868 7.5446 3.8804 19.762 1.6096 5.3652 9.1971 3.089 7.5876-2.2763z"/>
   <path d="m120.78 91.998c-17.755-7.8913-8.9322-3.6233-26.452-12.837-0.42222-0.23085-0.7487 0.36626-0.32648 0.59711 17.441 9.1598 9.2537 3.9699 24.626 15.469 2.2833 1.5222 4.436-1.7069 2.1527-3.229z"/>
   <path d="m117.25 45.358c-1.1103 1.178-1.8215 2.9489-3.3309 3.5341-7.3645 2.8552-15.902 2.2464-23.535 2.3382-0.175 3e-3 -0.17113 0.25022 4e-3 0.24749 7.417-0.11744 16.685-0.60943 24.07 0.64575 2.0278 0.34465 3.849 1.4522 5.7736 2.1783 6.3242-2.1081 3.3429-11.052-2.9812-8.9438z"/>
   <path d="m9.0929 87.208c1.9168-1.1784 3.8337-2.3569 5.7505-3.5354 2.4795-0.0954 2.3446-3.6019-0.13487-3.5065-1.3398-0.84533-2.6796-1.6907-4.0193-2.536-6.7726-1.1288-8.3689 8.4491-1.5963 9.5779z"/>
   <path d="m14.778 99.268c11.214-11.21 5.2983-6.1906 17.656-15.162 0.12858-0.0938-4e-3 -0.27559-0.13259-0.18184-11.843 8.6414-5.4292 5.7268-19.095 9.0582-4.4448 1.1112-2.8733 7.397 1.5715 6.2859z"/>
   <path d="m17.527 53.848c8.71 2.1959 4.9977 0.31504 11.389 5.114 0.91845 0.77557 2.0153-0.52331 1.0968-1.2989-4.9646-5.6411-3.4932-2.3379-4.2845-9.9664-4.3496-5.7995-12.551 0.3518-8.2017 6.1513z"/>
   <path d="m1.1769 63.928c13.075 3.0363 6.8689 0.97623 18.667 6.0326 0.23019 0.0951 0.36465-0.23046 0.13446-0.32554-11.641-4.6641-6.4063-1.3862-15.699-9.8447-2.9258-2.1943-6.029 1.9433-3.1032 4.1376z"/>
   <path d="m79.723 38.988c-1.1821 1.7017-2.3642 3.4034-3.5463 5.105-1.6309 0.67953-0.66988 2.986 0.96101 2.3064 1.781 0.28724 3.562 0.57447 5.343 0.86171 5.85-1.95 3.0923-10.223-2.7577-8.2732z"/>
   <path d="m63.173 42.648c0.2291 2.9306 0.76562 7.5737 0.1897 10.416-0.29734 1.4673-1.2039 2.7416-1.8058 4.1124-0.55794 2.7897 3.3873 3.5787 3.9452 0.78905-0.0304-1.46-0.49736-2.9774-0.0911-4.3801 0.86117-2.9738 3.3647-5.3556 5.3517-7.5639 2.3852-5.3667-5.2044-8.7398-7.5896-3.3732z"/>
   <path d="m71.383 70.568c2.2084-2.0454 2.8256-2.0687 3.5922-5.3549 0.19222-0.82404 0.11077-4.8791 0.21853-5.9846 0.22764-2.3354 0.99723-1.3663-0.62913-2.4774-1.1564-4.0864 0.10195-0.92976-2.4871-4.5273-3.2457-4.5099 0.64161-0.28703-2.9888-3.6642-0.4821-0.44846-0.80552-1.0949-1.384-1.4095-0.84024-0.45694-1.8299-0.55727-2.7449-0.8359-1.155 0.26287-2.3136 0.5109-3.4652 0.78861-0.32701 0.0789-0.93246 0.61517-0.96932 0.2808-0.0425-0.38577 1.1178-1.0462 0.92189-0.71119-0.30234 0.51699-0.8472 0.84707-1.2568 1.284-0.31755 0.33867-0.4805 0.90509-0.9241 1.042-0.52598 0.1624-1.088-0.16857-1.632-0.25286-0.54108 0.42726-1.0025 0.98175-1.6232 1.2818-0.48262 0.23327-1.0564 0.18255-1.5854 0.2691-0.26028 0.0426-0.54925-5e-3 -0.78233 0.11829-2.0923 1.108-1.6134 1.1823-2.9707 3.0527-0.40189 0.55379-0.84843 1.0738-1.2726 1.6106-1.4658 2.2371-1.5496 1.6811-1.5238 4.4981 0.0062 0.68103 0.23504 1.3458 0.26175 2.0263 0.01527 0.38855-0.15627 0.77014-0.13673 1.1585 0.0066 0.13066 0.15752 0.21143 0.21164 0.33054 0.0359 0.079 0.03616 0.16976 0.05424 0.25464-0.14668 0.27048-0.49833 0.50933-0.44005 0.81146 0.42636 2.2103 1.5243 2.9684 2.5699 4.8205 0.28944 0.51269 0.37575 1.1285 0.69231 1.6249 1.8168 2.8489 0.32463-0.83571 1.3791 2.1304 0.65259 0.59686 1.3052 1.1937 1.9578 1.7906 0.14822-0.0383 0.29607-0.15186 0.44467-0.11501 0.60141 0.14913 1.1247 0.5762 1.7391 0.6565 0.24057 0.0314 0.39812-0.35234 0.64064-0.34548 0.30294 9e-3 0.85505 0.0855 0.82276 0.38686-0.03166 0.29544-0.58644 0.0961-0.87966 0.14411 3.1569 2.1552-0.19509 0.438 1.9265 0.26625 0.50219-0.0407 0.95604 0.37995 1.4597 0.39224 2.1049 0.0514 3.8554-0.61788 5.7682-1.3292 2.2182-1.7039 2.9149-1.4738 3.4232-3.9256 0.38439-1.8542-0.83555-0.96866 0.13598-3.2908 0.19791-0.47303 0.79866-0.65696 1.1123-1.0626 0.43137-0.55785 0.73636-1.2028 1.1045-1.8043-0.14443-1.3341-0.07-0.50719-0.16257-2.0484-0.0228-0.37863-0.15372-0.76544-0.0714-1.1357 0.0801-0.36007 0.62227-0.60715 0.53898-0.9665-0.32901-1.4194-2.0381-3.3423-2.9113-4.4445-1.5474-1.9147-1.9042-2.7952-4.5065-3.7755-1.2832-0.48337-2.7544-6e-3 -4.0673-0.26007-1.4173-0.5966-0.72204-0.42906-2.0658-0.57962-0.84907 0.0992-1.7353 0.0304-2.5472 0.29775-0.39724 0.13081-0.5892 0.59878-0.92644 0.84613-1.2903 0.94635-1.5653 0.14587-2.5562 2.4298-0.64056 1.4764-1.0927 4.9264-1.3686 6.7394 0.12787 0.91275 0.28643 1.8217 0.38361 2.7382 0.22171 2.0912-0.11494 3.8874 1.4346 5.6418 1.7378 1.9676 3.6943 2.6317 6.2027 2.6563 0.7837 8e-3 1.539-0.2974 2.3085-0.4461 3.9672-1.485 1.2762-0.12457 3.5645-1.9143 0.24027-0.18791 0.52922-0.30416 0.78426-0.47149 0.75689-0.49658 2.215-1.3309 2.6647-2.2704 0.37632-0.78624 0.48764-1.6737 0.73145-2.5106 0.27668-0.42697 0.73646-0.78082 0.83004-1.2809 0.10819-0.57816-0.2224-1.158-0.26386-1.7448-0.041-0.58023 0.10813-1.1704 0.0172-1.745-0.30179-1.9074-0.94763-4.8635-3.0616-5.7994-1.0229-0.45285-2.233 0.13875-3.3495 0.20813-0.76256-0.41584-1.4443-1.04-2.2877-1.2475-2.343-0.57661-7.1673 0.33317-7.9953 3.0935-0.4129 1.3765-0.01672 3.366 0.24549 4.8967 0.63828 1.3732 1.5917 2.5745 2.2555 3.9318 0.38502 0.78733 0.49815 1.7016 0.95393 2.4501 1.4072 2.3113 5.7079 3.8765 7.972 2.5574 1.8188-1.0597 1.3277-3.995 1.9915-5.9926-0.23631-0.53148-0.50091-1.0513-0.70892-1.5945-0.025-0.0652 0.12329 0.20598 0.153 0.14284 0.19012-0.40397 0.7674-1.055 0.38371-1.2833-2.9132-1.7334-10.027-5.2148-9.391-2.2233-0.63405 0.25764-1.2681 0.51528-1.9022 0.77293-5.046 5.5977 2.8704 12.734 7.9164 7.1362-0.29967 0.26933-0.59934 0.53866-0.89901 0.808 0.30176-0.29856 0.54764-0.66702 0.90529-0.89568 0.0757-0.0484 0.19164 0.2878 0.11274 0.24483-2.4156-1.3157-4.8939-2.541-7.1685-4.0877-0.19269-0.13103 0.51462-0.6189 0.57716-0.39443 0.22484 0.80704-0.31185 1.6938-0.04389 2.5129 2.5253-5.6036 0.64459-4.9938 8.0321-2.8037 0.22085 0.0655-0.38292 0.46634-0.58844 0.36232-0.32294-0.16345-0.34256-0.6394-0.5479-0.93746-0.29151-0.42312-0.89076-0.71038-0.93974-1.2219-0.0598-0.62479 0.43571-1.1773 0.65357-1.7659-0.11712-2.991 0.0784 0.55911-0.35221 1.7053-0.2214 0.58929-0.70777 1.1425-1.2917 1.3777-0.14534 0.0586-3.4956 0.49017-2.1469-1.4408 0.18633-0.26678 0.40277 0.51119 0.60416 0.7668 0.34028 0.18304 0.72227 0.30387 1.0209 0.54912 0.12657 0.10396-0.4031 0.0397-0.48002-0.1049-0.23649-0.44458-0.35322-0.96444-0.35667-1.468-7.9e-4 -0.12135 0.24846 0.0387 0.34736 0.10907 0.87081 0.61935 0.41636 0.53014-0.34692 1.261-0.07129-0.15291-0.17939-0.29358-0.21387-0.45874-0.01598-0.0766 0.08633 0.13869 0.15491 0.17636 0.30394 0.16693 0.93745 0.0826 0.94764 0.42919 0.0141 0.48063-1.7136 1.191-1.9606 1.3207-0.02188 0.0115 0.04944-5.3e-4 0.07415-1e-3 -0.0072 0.12833-0.06766 0.26498-0.02162 0.38497 0.0549 0.14308 0.90764 1.3345 0.80978 1.5298-0.13948 0.27826-0.68559 0.47635-0.89962 0.25035-0.73553-0.77669 0.8929-2.5779-0.10346-3.2074 0.11921-0.46748 0.27717-0.92677 0.35764-1.4024 0.04204-0.24851-0.12004 0.49569-0.24159 0.71648-0.02154 0.0391-0.15821-0.0443-0.11791-0.0635 0.29797-0.142 0.62006-0.22732 0.93506-0.32597 0.16759-0.0525 0.68507-0.10153 0.51131-0.12699-0.49202-0.0721-0.99449-0.0111-1.4917-0.0167 1.0067-0.27891 1.3943-0.51699 2.5507-0.54592 0.14615-4e-3 0.44444 0.26134 0.42275 0.11677-0.0401-0.26733-0.44719-0.37283-0.50091-0.63775-0.0242-0.11932 0.23425-0.0664 0.35137-0.0997 0.0624 0.26464 0.0411 0.56468 0.18731 0.79392 0.0796 0.12484 0.46006 0.0117 0.41689 0.15336-0.10672 0.35019-0.57641 0.49385-0.71714 0.83182-0.0439 0.10548 0.36475 8e-3 0.32315 0.11439-0.0523 0.13379-0.27617 0.0791-0.41425 0.1187-0.0522 0.26115-0.10434 0.52229-0.15651 0.78343 0.30666 0.1366 0.77731 0.10591 0.92 0.4098 0.51797 1.1031-0.41476 1.7248-0.90608 2.4522-0.31111 0.46056-0.57545 0.95105-0.86406 1.426-0.0528 0.0868-0.23545 0.32741-0.16003 0.25936 0.49557-0.44715 0.95212-0.93574 1.4282-1.4036 0.16769 0.0854 0.54795 0.0734 0.50307 0.25615-0.0572 0.23274-0.66813 0.55748-0.64433 0.319 0.033-0.33094 0.4363-0.50463 0.68491-0.72555 0.0412-0.0366 7e-3 0.16827-0.0468 0.15851-0.29263-0.0527-0.55454-0.41912-0.83377-0.31697-0.18361 0.0672 0.10044 0.37791 0.15066 0.56686-1.5036-0.35622-1.281-0.1038-2.0767-0.66361-0.33025-0.23236-0.75622-0.37507-0.9813-0.71033-0.10696-0.15931 0.69672-0.0477 0.56785 0.0945-0.80108 0.8837-2.2068-1.0217 0.40747 1.3465-0.64049-0.82894-0.1705-0.41799-1.6883-0.81089-0.22643-0.25107 0.29794-0.72895 0.10784-1.0085-0.13862-0.20387-0.5307-0.0518-0.73445 0.087-0.12522 0.0853 0.29343 0.0757 0.44014 0.11351-0.22779-0.44423-0.45558-0.88846-0.68338-1.3327 0.33043-0.52996 0.86427-0.9784 0.9913-1.5899 0.54503-2.6238-0.94542-0.0103-0.52797-1.768 0.02188-0.0921 0.28503 0.13974 0.20746 0.19402-1.0394 0.72737-0.99207 0.78784-1.125 0.35137 0.3439-1.0181 0.0099-0.39803 0.93466-1.2515 0.08553-0.0789 0.1177-0.22435 0.22648-0.26578 0.38968-0.14842 0.87247-0.0513 1.2182-0.28445 1.7859-1.2043-1.3127-0.70479 1.4656-0.8788 0.52143-0.23752 1.0205-0.53214 1.5643-0.71255 0.56597-0.18776 1.1574-0.29532 1.7468-0.38591 0.15748-0.0242 0.32529 0.0962 0.47591 0.0443 0.70922-0.24445 1.3825-0.58498 2.0553-0.91672 0.029-0.0143 0.0326-0.0989 5.3e-4 -0.0969-0.88358 0.0563-1.7619 0.17679-2.6428 0.26519-0.38349-0.24094-0.99233-0.29843-1.1505-0.72282-0.0987-0.2648 0.57852-0.21313 0.84085-0.10807 0.95689 0.3832 2.1036 2.0633 2.6747 2.9526 0.11503 1.341 0.0287 1.8914 0.5054 3.0392 0.23203 0.55869 0.50021 0.11157 1.0086 0.46445 0.13485 0.0936 0.30148 0.38033 0.16107 0.46535-0.35323 0.21385-0.81714 0.11947-1.2257 0.17921-5.914 3.3794-1.1348 11.743 4.7793 8.3637z"/>
  </g>
  <path d="m53.941 63.603c0.5011 0.36373 1.1858 0.55959 1.5033 1.0912 0.37748 0.632 0.16014 1.4835 0.4409 2.164 0.25559 0.61949 2.1937 1.4777 2.3901 1.6128 0.27525 0.18938 0.45278 0.4942 0.70964 0.70785 0.38709 0.32198 0.81133 0.59647 1.217 0.8947 0.06685 0.081 0.13369 0.16205 0.20054 0.24307 6.3449 2.9858 10.568-5.9872 4.2226-8.973-0.0732-0.27449-0.14643-0.54898-0.21964-0.82346-0.0486 1.7284 0.12064 0.4074-0.38574 0.11759-0.13555-0.0776 0.13127 0.46002-0.0247 0.46786-0.30402 0.0153-0.55549-0.25565-0.80777-0.42599-1.0998-0.74258-0.98895-1.0235-1.7854-2.4057-3.7683-5.2756-11.229 0.0536-7.4608 5.3292z" stroke-width=".26458"/>
 </g>
</svg>
