<?xml version="1.0" encoding="UTF-8"?>
<svg width="145.32mm" height="172.27mm" version="1.1" viewBox="0 0 145.32 172.27" xmlns="http://www.w3.org/2000/svg" xmlnsCc="http://creativecommons.org/ns#" xmlnsDc="http://purl.org/dc/elements/1.1/" xmlnsRdf="http://www.w3.org/1999/02/22-rdf-syntax-ns#">
 <metadata>
  <rdfRDF>
   <ccWork rdfAbout="">
    <dcFormat>image/svg+xml</dcFormat>
    <dcType rdfResource="http://purl.org/dc/dcmitype/StillImage"/>
    <dcTitle/>
   </ccWork>
  </rdfRDF>
 </metadata>
 <g fill="#f2f2f2">
  <g stroke-width=".26458">
   <path d="m69.494 81.551c-1.4546-2.4328-2.2175-5.1622-2.8562-7.8993-0.98521-5.0586-1.1012-10.221-1.0156-15.357 0.19305-3.8045 0.45765-7.6233 1.0522-11.39 0.25023-1.5854 0.68378-3.5489 1.0144-5.1208 0.94942-4.651 2.1904-9.2306 3.7058-13.727 1.409-4.4324 3.3872-8.6305 5.7245-12.64 1.8685-2.9777 4.0675-5.7368 6.5797-8.1971 1.5308-1.4992 2.4157-2.1988 4.0365-3.5702 1.6192-1.2839 3.3153-2.4646 5.0066-3.65l-7.9792 3.152c-1.6135 1.1767-3.2296 2.3519-4.7619 3.6346-1.6033 1.406-2.4467 2.0973-3.9644 3.6316-2.5113 2.5389-4.7204 5.3614-6.5784 8.4111-2.3212 4.0797-4.2968 8.3391-5.7134 12.823-1.4643 4.5161-2.636 9.1169-3.5723 13.772-0.36703 1.8298-0.69101 3.3144-0.95584 5.1659-0.54199 3.789-0.77246 7.622-0.96375 11.441-0.12581 5.225-0.0273 10.479 0.91185 15.637 0.60567 2.8603 1.3701 5.6755 2.6134 8.3334l7.7161-4.4503z"/>
   <path d="m78.184 87.931c0.98565-2.9247 2.5819-5.5984 4.1513-8.2392 2.1792-3.6156 4.724-6.9849 7.3687-10.268 3.088-3.6343 6.5697-6.9036 10.106-10.093 1.8655-1.6105 3.7884-3.1674 5.838-4.5405 0.6112-0.4095 2.5108-1.5339 1.8711-1.1706-7.3736 4.188-6.9228 3.9108-3.6762 2.3508 3.5636-1.5268 7.3757-2.3259 11.134-3.2135 3.49-0.83623 6.9574-1.7642 10.455-2.5705 2.5289-0.59151 5.1104-0.8732 7.683-1.1921 1.4641-0.19201 2.9167-0.35679 4.3797-0.10671 0.18287 0.039 0.36574 0.078 0.54861 0.11699l7.2785-5.0563c-0.19059-0.04126-0.38117-0.08252-0.57176-0.12377-0.37017-0.07889-1.0076-0.22321-1.3738-0.26422-1.0868-0.12172-2.1676 0.09367-3.2458 0.20152-2.6508 0.33845-5.3061 0.67116-7.9159 1.261-3.4953 0.78478-6.9684 1.6658-10.44 2.5473-3.7854 0.91969-7.6295 1.6984-11.272 3.107-6.6967 2.9852-12.947 6.9528-18.426 11.813-3.5618 3.244-7.0881 6.5545-10.171 10.267-2.6333 3.3186-5.1454 6.7386-7.324 10.377-1.6398 2.7703-3.2723 5.5669-4.4417 8.5758l8.0467-3.779z"/>
   <path d="m68.874 97.761c3.0628-0.8017 6.1689-1.3321 9.3132-1.6769 3.4698-0.21077 6.9695-0.57045 10.45-0.36108 0.66676 0.0401 1.3301 0.12484 1.9951 0.18726 3.4446 0.43056 6.7032 1.5492 9.8405 2.9885 2.7225 1.4081 5.0714 3.3813 7.3524 5.401 2.5583 2.2771 4.8877 4.7842 7.081 7.4096 2.1392 2.4773 4.0003 5.1598 5.7204 7.938 1.0887 1.9143 2.1536 3.846 3.0059 5.8783 0.82535 1.8459 1.3013 3.8198 1.9471 5.7311l7.5973-4.1829c-0.6337-1.9451-1.1136-3.9438-1.9013-5.8354-0.88069-2.0716-2.0502-3.9975-3.1655-5.9492-1.7785-2.7879-3.7547-5.4378-5.879-7.9729-2.1857-2.6816-4.5261-5.2216-7.0881-7.552-2.3011-2.1216-4.7467-4.0861-7.4875-5.6202-1.0968-0.51829-1.7505-0.85292-2.8871-1.2865-2.3246-0.88672-4.769-1.4175-7.2094-1.8675-0.6739-0.0815-1.3452-0.18909-2.0217-0.24454-3.5086-0.28756-7.0425 0.16769-10.547 0.29417-1.5739 0.13366-2.463 0.18711-4.0062 0.40006-1.6938 0.23375-3.3411 0.68575-5.0313 0.93775l-7.0787 5.3834z"/>
   <path d="m64.126 99.841c1.1965 3.1744 1.5671 6.6065 1.9362 9.9591 0.56568 4.6852 0.343 9.3889-0.0692 14.073-0.45132 5.2246-1.4231 10.373-2.6851 15.456-1.1565 4.5573-3.05 8.8713-5.1602 13.056-1.8062 3.4015-3.9133 6.6377-6.1254 9.7873-1.7897 2.5494-3.7242 4.9987-5.4893 7.5641-0.54884 0.80722-1.0123 1.663-1.4546 2.5311l8.0162-3.6101c0.43945-0.82153 0.89726-1.6322 1.4252-2.4014 1.7429-2.532 3.572-5.0029 5.358-7.5044 2.1604-3.1673 4.2221-6.4117 5.9456-9.8411 2.0787-4.2352 3.9448-8.5986 5.0318-13.206 1.1873-5.129 2.1624-10.307 2.6136-15.559 0.41521-4.7524 0.67017-9.5258 0.10868-14.281-0.39204-3.4489-0.81216-6.9118-1.6619-10.283l-7.7896 4.2594z"/>
   <path d="m54.032 99.541c-1.8687 1.6143-3.6114 3.3782-5.4137 5.0694-0.46233 0.40063-0.9151 0.81257-1.387 1.2019-1.1843 0.9771-1.7744 1.408-3.0653 2.238-0.52915 0.34023-2.1577 1.2943-1.6109 0.98322 7.9812-4.5405 7.0719-4.031 3.9311-2.3758-3.4777 1.787-7.079 3.2954-10.725 4.6983-3.4278 1.3569-6.9708 2.3178-10.606 2.9-3.3838 0.44709-6.8017 0.55742-10.208 0.38082-1.5401-0.13352-3.0707-0.35246-4.6021-0.5595l-7.0542 4.9897c1.562 0.18761 3.1221 0.38989 4.6851 0.56916 3.445 0.24727 6.896 0.1424 10.33-0.24531 3.6801-0.52382 7.2721-1.4219 10.743-2.7713 3.6589-1.4055 7.2946-2.8622 10.794-4.6378 4.6326-2.3066 2.1732-1.0364 10.663-6.0334 2.1864-1.2868 4.1699-2.8865 6.0413-4.5908 1.8849-1.7496 3.7156-3.5699 5.7467-5.152l-8.263 3.3352z"/>
   <path d="m59.622 87.231c-2.8318 0.18806-5.6109-0.43121-8.3468-1.0782-4.5391-1.1226-8.9023-2.792-13.141-4.7457-3.2853-1.6226-6.3915-3.5798-9.4366-5.6105-3.2103-2.2578-6.2159-4.7875-9.0495-7.499-2.3146-2.1866-4.1991-4.7533-6.0461-7.3308-1.6428-2.4332-3.1122-4.9791-4.5-7.5647-0.53917-0.99047-1.0338-1.9998-1.4911-3.0299l-7.6111 4.3003c0.49092 1.0357 1.012 2.0539 1.5788 3.0507 1.4477 2.591 2.9565 5.151 4.616 7.613 1.8572 2.6441 3.7792 5.2592 6.1846 7.4414 2.8852 2.7221 5.9347 5.2626 9.1324 7.6116 3.0559 2.1118 6.2106 4.1007 9.5733 5.692 4.2861 1.9374 8.6719 3.6281 13.213 4.8757 2.6523 0.74689 5.3411 1.476 8.1169 1.5103l7.207-5.2362z"/>
   <path d="m39.459 41.602c-1.4127 0.29858-2.8681 0.66622-4.1428 1.3701-0.34762 0.19196-0.67001 0.42642-1.005 0.63962-2.3273 1.6422-3.8009 4.0447-5.0118 6.5634-1.1213 2.6517-1.3558 5.5282-1.5111 8.3692 2.12e-4 1.2979 0.04749 2.6613 0.55399 3.8799 0.2987 0.71863 0.5393 1.0102 0.96442 1.6387 0.98562 1.2254 2.1971 2.231 3.5516 3.0187 1.3119 0.72851 2.7826 0.92113 4.2535 1.0274 1.8613 0.19814 3.3967-0.12653 5.1385-0.76532 1.7003-0.64058 3.2273-1.5541 4.5781-2.7606 1.673-1.5937 2.4154-3.7671 2.9522-5.953 0.36526-1.8384 0.63662-3.7379-0.20794-5.4952-0.15783-0.32839-0.37631-0.624-0.56446-0.93599-1.2852-1.6332-3.122-2.1708-5.0954-2.4088-1.5339-0.18013-3.0382-0.0768-4.5209 0.33554-1.3788 0.52541-2.0687 1.1151-2.6917 2.4485-0.33116 1.016-0.34948 2.0888-0.36382 3.1466-0.0094 0.91576-0.02506 1.895 0.50542 2.6951 0.17362 0.26186 0.42121 0.46629 0.63182 0.69943 0.21114 0.15634 0.42227 0.31268 0.63341 0.46902 1.894 1.333 3.7792-1.3455 1.8852-2.6786-0.08285-0.0506-0.16571-0.10114-0.24856-0.15171-0.06677 0.0408 0.0016 0.29461-0.04352 0.23065-0.22627-0.32106-0.01124-0.87715-0.08858-1.2211 0.0083-0.66099 0.01466-1.326 0.13212-1.9787-0.21833-0.089 0.42977-0.4453 0.53139-0.50502 1.0717-0.30262 2.1493-0.37212 3.2634-0.23572 0.96662 0.1037 1.971 0.23231 2.7131 0.92379 0.97774 1.3245 0.5918 2.3485 0.34531 3.893-0.36458 1.54-0.8164 3.1342-1.9614 4.2894-1.0329 0.94274-2.216 1.6237-3.5264 2.1234-1.3067 0.49448-2.3555 0.73104-3.7667 0.56813-0.97651-0.0668-1.9722-0.14031-2.8561-0.60236-0.94266-0.52735-1.7665-1.2333-2.4855-2.0396-0.16966-0.23664-0.42565-0.57027-0.56055-0.83964-0.39906-0.79684-0.34658-1.778-0.3811-2.6385 0.1296-2.4127 0.29047-4.8665 1.1963-7.1352 0.93802-1.9808 2.0484-3.9126 3.8508-5.2348 1.1452-0.78534 2.4543-1.2448 3.8162-1.5071 2.2928-0.32754 1.8296-3.5701-0.46322-3.2425z"/>
   <path d="m98.964 38.446c-0.54237-1.3381-1.1602-2.7062-2.0774-3.8372-0.2501-0.30843-0.5376-0.58456-0.80641-0.87685-2.0259-2.0022-4.6501-3.0303-7.3425-3.7793-2.8075-0.63746-5.6805-0.3624-8.5046-0.0156-1.2777 0.22848-2.6115 0.51482-3.722 1.2277-0.65489 0.42043-0.89958 0.70856-1.4435 1.2376-1.033 1.1858-1.8098 2.5552-2.347 4.0272-0.48643 1.4196-0.41739 2.9012-0.26327 4.3679 0.13231 1.8672 0.72194 3.3215 1.6571 4.9238 0.92962 1.5611 2.0975 2.9037 3.5228 4.0212 1.8631 1.3666 4.1332 1.7153 6.3794 1.8592 1.874 0.0362 3.7916-0.0307 5.373-1.1712 0.29551-0.21312 0.54809-0.48019 0.82212-0.72028 1.3817-1.5524 1.5879-3.4552 1.4752-5.4396-0.0924-1.5417-0.45875-3.0043-1.1254-4.3915-0.75971-1.2649-1.4616-1.8403-2.8837-2.2192-1.0584-0.14731-2.1177 0.02332-3.1615 0.19526-0.90307 0.1522-1.8699 0.30858-2.5642 0.97154-0.22724 0.21697-0.38494 0.49666-0.57741 0.74498-0.11677 0.23534-0.23354 0.47068-0.3503 0.70602-0.97912 2.0989 1.9892 3.4836 2.9684 1.3847 0.0352-0.09041 0.0704-0.18092 0.10564-0.27137-0.0519-0.05858-0.28967 0.05378-0.23471-0.0023 0.27626-0.27921 0.86151-0.16529 1.1865-0.30199 0.6521-0.10838 1.3079-0.21874 1.9711-0.21792 0.0492-0.23059 0.51394 0.34475 0.59061 0.43429 0.48638 1.0017 0.74433 2.0504 0.80599 3.1711 0.0679 0.96979 0.11796 1.9811-0.43222 2.8333-1.1319 1.1954-2.2078 0.99561-3.7715 1.0246-1.5801-0.0881-3.2289-0.25245-4.5675-1.1764-1.1097-0.85103-1.9882-1.8959-2.7105-3.098-0.7166-1.1994-1.1339-2.1902-1.2218-3.6081-0.10598-0.97303-0.20873-1.9661 0.0907-2.9175 0.35334-1.0207 0.90339-1.9558 1.5706-2.8055 0.20311-0.20862 0.48652-0.51931 0.72796-0.69948 0.71424-0.53298 1.6894-0.65389 2.5303-0.8392 2.3979-0.29676 4.8417-0.56995 7.2344-0.0773 2.1149 0.57502 4.2119 1.3283 5.8304 2.8701 0.97452 0.98926 1.657 2.1971 2.1548 3.4916 0.72568 2.1995 3.8362 1.1732 3.1105-1.0263z"/>
   <path d="m104.14 79.341c0.74252 1.2383 1.5642 2.4946 2.645 3.4704 0.29473 0.26612 0.62143 0.49454 0.93215 0.7418 2.3108 1.6654 5.0623 2.2758 7.838 2.6001 2.8723 0.19626 5.6683-0.51915 8.4049-1.2979 1.2271-0.42304 2.5007-0.91192 3.4878-1.7878 0.58212-0.51651 0.77938-0.83898 1.2351-1.4456 0.83748-1.3311 1.3935-2.8041 1.6969-4.3413 0.26137-1.4777-0.0356-2.9309-0.41441-4.3562-0.41906-1.8243-1.2262-3.1701-2.3976-4.6088-1.1596-1.3988-2.5207-2.545-4.1015-3.4289-2.0518-1.0625-4.3485-1.0564-6.59-0.85172-1.8571 0.25359-3.7414 0.61586-5.1276 1.9868-0.25905 0.2562-0.46736 0.55907-0.70103 0.8386-1.1254 1.7472-1.0353 3.6589-0.61743 5.6022 0.32941 1.5089 0.91718 2.8975 1.7901 4.165 0.94593 1.1324 1.7282 1.5926 3.1918 1.7472 1.0685-0.0179 2.0887-0.35006 3.0935-0.68114 0.86872-0.28983 1.7998-0.59364 2.3834-1.3559 0.191-0.24946 0.30362-0.55014 0.45544-0.82521 0.079-0.25056 0.15804-0.5011 0.23707-0.75165 0.64325-2.225-2.5033-3.1347-3.1466-0.90969-0.0208 0.0949-0.0416 0.18961-0.0625 0.28442 0.0603 0.0499 0.27789-0.0979 0.23225-0.034-0.22983 0.31852-0.82565 0.29635-1.1257 0.48159-0.62754 0.20778-1.2584 0.41809-1.9138 0.5197-0.013 0.23542-0.56103-0.26125-0.6506-0.33787-0.63523-0.91461-1.052-1.9108-1.286-3.0086-0.21686-0.94766-0.42248-1.9392-0.0105-2.8661 0.93371-1.3559 2.0276-1.3246 3.5681-1.5947 1.5747-0.157 3.2292-0.24921 4.6944 0.45699 1.2278 0.66945 2.2571 1.5662 3.1564 2.6423 0.89322 1.0744 1.4585 1.9888 1.7643 3.3762 0.25498 0.94499 0.50985 1.9103 0.36096 2.8965-0.19148 1.063-0.59053 2.0719-1.1186 3.0144-0.16846 0.2375-0.40049 0.58822-0.61121 0.80352-0.62337 0.63687-1.5681 0.90693-2.3704 1.2199-2.3233 0.66349-4.6956 1.3108-7.1357 1.1935-2.1784-0.24153-4.3665-0.66198-6.2037-1.9353-1.1156-0.8269-1.9764-1.9149-2.6682-3.117-1.0566-2.061-3.9713-0.56671-2.9147 1.4943z"/>
   <path d="m100.74 133.91c0.92813-1.106 1.8473-2.2928 2.417-3.6329 0.15535-0.36545 0.26461-0.74882 0.39692-1.1232 0.81988-2.7278 0.4988-5.5279-0.10067-8.2575-0.75202-2.779-2.3409-5.1884-3.9702-7.521-0.80039-1.0218-1.6782-2.066-2.8283-2.7132-0.67824-0.38163-1.0474-0.46284-1.7696-0.69555-1.5315-0.35715-3.1053-0.40196-4.6574-0.18699-1.482 0.23527-2.7587 0.99034-3.9823 1.8136-1.5876 0.9916-2.5963 2.1938-3.5738 3.7706-0.94371 1.5526-1.5828 3.2134-1.9024 4.9961-0.33456 2.2862 0.4208 4.4551 1.3459 6.5071 0.84588 1.6726 1.8034 3.3355 3.5517 4.1983 0.32672 0.16125 0.681 0.25929 1.0215 0.38892 2.0188 0.49343 3.7964-0.2157 5.4969-1.245 1.3188-0.8039 2.4394-1.8127 3.3526-3.0515 0.76161-1.2637 0.94122-2.1534 0.60971-3.5873-0.36569-1.0041-1.0126-1.86-1.6536-2.7017-0.55751-0.72655-1.1486-1.5075-2.0596-1.8103-0.29814-0.0991-0.61911-0.10743-0.92867-0.16114-0.26262 7e-3 -0.52524 0.0142-0.78787 0.0212-2.3131 0.11822-2.1459 3.3894 0.1672 3.2712 0.0964-0.0112 0.19282-0.0225 0.28923-0.0338 0.0274-0.0733-0.18321-0.23072-0.10796-0.20841 0.3761 0.11327 0.54962 0.68369 0.82264 0.90681 0.40123 0.52534 0.80595 1.053 1.1159 1.6393 0.22677-0.0645-0.0638 0.61557-0.10702 0.72524-0.65716 0.89898-1.4628 1.6181-2.424 2.1976-0.82498 0.51431-1.6951 1.0323-2.7057 0.94543-1.5864-0.43999-1.9139-1.4842-2.672-2.8521-0.6624-1.4372-1.2896-2.971-1.1003-4.5865 0.23201-1.3791 0.74366-2.6447 1.4673-3.846 0.72396-1.195 1.4038-2.0278 2.6154-2.7696 0.81002-0.54946 1.6393-1.1055 2.62-1.2866 1.0673-0.166 2.1512-0.11809 3.2144 0.0734 0.27947 0.0817 0.68672 0.18656 0.959 0.31547 0.80548 0.38134 1.3691 1.1862 1.9268 1.8424 1.3855 1.9795 2.7717 4.0106 3.4573 6.3553 0.48274 2.1379 0.79953 4.3434 0.1956 6.4956-0.41747 1.3244-1.1649 2.4932-2.0754 3.5394-1.6032 1.6715 0.7606 3.9388 2.3638 2.2673z"/>
   <path d="m57.337 138.4c0.28181-1.4161 0.51696-2.8987 0.37188-4.3476-0.03957-0.39512-0.12814-0.78379-0.19221-1.1757-0.59306-2.7859-2.2212-5.0865-4.0596-7.1913-1.9959-2.0748-4.5477-3.4231-7.0981-4.6846-1.1932-0.51089-2.465-1.0043-3.7846-1.0186-0.77819-8e-3 -1.1409 0.098-1.886 0.24125-1.5145 0.42344-2.9159 1.1411-4.1733 2.076-1.1862 0.91906-1.9424 2.1951-2.6193 3.5053-0.91508 1.633-1.2212 3.1721-1.3199 5.0247-0.08069 1.8151 0.15771 3.5786 0.73489 5.2952 0.80622 2.1654 2.5116 3.7037 4.3096 5.0578 1.5461 1.0597 3.1853 2.0571 5.1331 1.9727 0.364-0.0158 0.72177-0.10019 1.0826-0.15029 2.0073-0.53832 3.2248-2.015 4.2207-3.7352 0.76959-1.339 1.2669-2.7625 1.4718-4.2878 0.05996-1.4743-0.21044-2.3407-1.1907-3.4384-0.80355-0.7045-1.7824-1.1438-2.7491-1.5735-0.83807-0.36924-1.7321-0.76924-2.6764-0.59666-0.30907 0.0565-0.59448 0.20358-0.89172 0.30537-0.22685 0.13251-0.4537 0.26503-0.68054 0.39754-1.9711 1.2161-0.2513 4.0037 1.7198 2.7876 0.07916-0.0563 0.15823-0.11249 0.23734-0.16873-0.0112-0.0775-0.2716-0.11417-0.19489-0.13081 0.38422-0.0816 0.81069 0.3351 1.1574 0.39941 0.60444 0.26763 1.2131 0.53564 1.7668 0.90058 0.16778-0.16565 0.24009 0.5704 0.25497 0.68732-0.14382 1.1042-0.50429 2.1222-1.0684 3.0926-0.47596 0.84769-0.98967 1.7203-1.9175 2.1302-1.6025 0.3772-2.3918-0.38079-3.7144-1.2155-1.272-0.94152-2.5595-1.9846-3.1705-3.492-0.45984-1.3207-0.61993-2.6764-0.56324-4.0776 0.06002-1.3959 0.25555-2.4531 0.961-3.6861 0.44592-0.87131 0.90556-1.7576 1.6783-2.3881 0.85594-0.65885 1.8292-1.1381 2.8535-1.4816 0.28433-0.0628 0.69181-0.16671 0.99253-0.18464 0.8896-0.053 1.7709 0.38156 2.5754 0.68864 2.1667 1.0692 4.3589 2.1833 6.0877 3.9092 1.4514 1.6422 2.7899 3.4236 3.2955 5.601 0.27094 1.3619 0.17775 2.7462-0.11733 4.1014-0.60176 2.2365 2.5612 3.0876 3.163 0.85101z"/>
  </g>
  <path d="m20.992 110.52c1.1758-0.92075 2.3591-1.9279 3.2173-3.1821 0.23404-0.34203 0.42476-0.71424 0.63713-1.0714 1.4003-2.6379 1.6509-5.6362 1.6028-8.6306-0.1936-3.084-1.3177-5.9919-2.499-8.8299-0.60591-1.2648-1.2862-2.5724-2.3264-3.5342-0.61345-0.56718-0.9735-0.74405-1.6626-1.167-1.4895-0.75485-3.0866-1.1948-4.7152-1.3585-1.5613-0.1251-3.0203 0.34282-4.4393 0.89504-1.8253 0.63671-3.1031 1.6376-4.4266 3.0366-1.2839 1.3823-2.2792 2.9533-2.9737 4.7313-0.81368 2.299-0.49067 4.748 0.02981 7.1176 0.51791 1.9544 1.1518 3.9266 2.7581 5.2626 0.30018 0.24966 0.64153 0.44035 0.9623 0.66051 1.9587 1.0186 3.9196 0.72376 5.8678 0.076 1.5121-0.50826 2.8643-1.2796 4.0522-2.3425 1.0384-1.1267 1.4055-2.009 1.3633-3.5861-0.16586-1.1378-0.64942-2.1914-1.1298-3.2287-0.41862-0.89663-0.86104-1.858-1.7283-2.4012-0.28383-0.17778-0.60974-0.26664-0.91461-0.39996-0.26952-0.0582-0.53903-0.11645-0.80855-0.17469-2.3853-0.45472-2.8903 2.9961-0.50498 3.4508 0.10076 0.0124 0.20146 0.0247 0.3022 0.037 0.04311-0.0695-0.13902-0.28637-0.06713-0.24419 0.36048 0.21202 0.41981 0.84982 0.65234 1.1506 0.30072 0.64789 0.60517 1.2988 0.8004 1.9872 0.24481-0.0106-0.19228 0.62557-0.25902 0.72908-0.85645 0.77265-1.8273 1.3208-2.9281 1.6846-0.94828 0.32986-1.9434 0.65229-2.9569 0.30926-1.5284-0.8549-1.6469-2.0249-2.1382-3.6399-0.37926-1.6633-0.70262-3.4184-0.1758-5.0547 0.52166-1.3792 1.3053-2.5703 2.292-3.6414 0.98576-1.0645 1.8517-1.7626 3.2415-2.2329 0.94027-0.37022 1.9015-0.74248 2.94-0.68623 1.1237 0.0937 2.22 0.4144 3.2658 0.87958 0.26838 0.15498 0.6624 0.366 0.9137 0.56837 0.74337 0.59865 1.1524 1.5783 1.5861 2.4014 1.0053 2.4091 2.0007 4.8721 2.2162 7.4869 0.05115 2.3486-0.08104 4.7262-1.142 6.8182-0.69965 1.2759-1.704 2.3072-2.8494 3.1701-1.9816 1.3414-0.03719 4.2948 1.9445 2.9535z" stroke-width=".27942"/>
  <path d="m67.036 80.761c-0.89792 0.22383-1.823 0.49944-2.6333 1.0271-0.22096 0.14389-0.42588 0.31966-0.63882 0.47949-1.4793 1.2311-2.4159 3.0322-3.1856 4.9203-0.71273 1.9878-0.86179 4.1443-0.9605 6.2741 1.35e-4 0.97301 0.03019 1.9951 0.35213 2.9086 0.18986 0.53873 0.3428 0.7573 0.61301 1.2284 0.62649 0.91867 1.3965 1.6725 2.2575 2.263 0.83389 0.54613 1.7687 0.69053 2.7037 0.77018 1.1831 0.14853 2.159-0.0949 3.2662-0.57373 1.0807-0.48022 2.0514-1.165 2.91-2.0695 1.0634-1.1948 1.5353-2.824 1.8765-4.4627 0.23217-1.3782 0.40466-2.8022-0.13218-4.1195-0.10031-0.24617-0.23919-0.46778-0.35878-0.70167-0.81694-1.2243-1.9844-1.6274-3.2388-1.8058-0.975-0.13504-1.9312-0.0576-2.8737 0.25154-0.87639 0.39388-1.3149 0.83597-1.7109 1.8355-0.2105 0.76168-0.22214 1.5659-0.23125 2.3589-6e-3 0.6865-0.01593 1.4206 0.32126 2.0204 0.11036 0.1963 0.26774 0.34956 0.40161 0.52433 0.1342 0.11721 0.26841 0.2344 0.40261 0.3516 1.2039 0.99932 2.4022-1.0087 1.1983-2.008-0.05263-0.0379-0.10532-0.0758-0.15799-0.11373-0.04246 0.0306 0.0013 0.22085-0.02765 0.17291-0.14382-0.24069-0.0071-0.65757-0.05632-0.91544 0.0051-0.49553 0.0093-0.99405 0.08399-1.4833-0.13878-0.0667 0.27317-0.33383 0.33777-0.3786 0.68118-0.22685 1.3662-0.27896 2.0743-0.1767 0.61442 0.0777 1.2528 0.17415 1.7246 0.69253 0.62148 0.99292 0.37617 1.7606 0.21949 2.9184-0.23174 1.1545-0.51893 2.3496-1.2467 3.2156-0.65656 0.70673-1.4086 1.2172-2.2415 1.5918-0.8306 0.37069-1.4972 0.54803-2.3942 0.4259-0.6207-0.0501-1.2536-0.10518-1.8154-0.45156-0.59919-0.39534-1.1228-0.92455-1.5799-1.529-0.10784-0.1774-0.27056-0.42751-0.3563-0.62944-0.25365-0.59736-0.2203-1.3329-0.24224-1.978 0.08237-1.8087 0.18463-3.6482 0.76037-5.349 0.59624-1.485 1.302-2.9331 2.4477-3.9243 0.72794-0.58875 1.56-0.93315 2.4257-1.1298 1.4574-0.24555 1.1629-2.6763-0.29444-2.4308z" stroke-width=".18264"/>
 </g>
</svg>
